<?xml version="1.0" encoding="UTF-8" standalone="no"?>
<!-- Created with Inkscape (http://www.inkscape.org/) -->

<svg
   width="34mm"
   height="29mm"
   viewBox="0 0 34 29"
   version="1.1"
   id="svg1717"
   inkscape:version="1.1 (c68e22c387, 2021-05-23)"
   sodipodi:docname="Hand-logo.svg"
   xmlns:inkscape="http://www.inkscape.org/namespaces/inkscape"
   xmlns:sodipodi="http://sodipodi.sourceforge.net/DTD/sodipodi-0.dtd"
   xmlns="http://www.w3.org/2000/svg"
   xmlns:svg="http://www.w3.org/2000/svg">
  <sodipodi:namedview
     id="namedview1719"
     pagecolor="#ffffff"
     bordercolor="#cccccc"
     borderopacity="1"
     inkscape:pageshadow="0"
     inkscape:pageopacity="1"
     inkscape:pagecheckerboard="0"
     inkscape:document-units="mm"
     showgrid="false"
     inkscape:zoom="2.6205012"
     inkscape:cx="85.289027"
     inkscape:cy="62.392644"
     inkscape:window-width="1366"
     inkscape:window-height="705"
     inkscape:window-x="-8"
     inkscape:window-y="-8"
     inkscape:window-maximized="1"
     inkscape:current-layer="g2276" />
  <defs
     id="defs1714">
    <inkscape:path-effect
       effect="bspline"
       id="path-effect3268"
       is_visible="true"
       lpeversion="1"
       weight="33.333333"
       steps="2"
       helper_size="0"
       apply_no_weight="true"
       apply_with_weight="true"
       only_selected="false" />
    <inkscape:path-effect
       effect="bspline"
       id="path-effect27994"
       is_visible="true"
       lpeversion="1"
       weight="33.333333"
       steps="2"
       helper_size="0"
       apply_no_weight="true"
       apply_with_weight="true"
       only_selected="false" />
    <inkscape:path-effect
       effect="bspline"
       id="path-effect27990"
       is_visible="true"
       lpeversion="1"
       weight="33.333333"
       steps="2"
       helper_size="0"
       apply_no_weight="true"
       apply_with_weight="true"
       only_selected="false" />
    <inkscape:path-effect
       effect="bspline"
       id="path-effect25689"
       is_visible="true"
       lpeversion="1"
       weight="33.333333"
       steps="2"
       helper_size="0"
       apply_no_weight="true"
       apply_with_weight="true"
       only_selected="false" />
    <inkscape:path-effect
       effect="bspline"
       id="path-effect25685"
       is_visible="true"
       lpeversion="1"
       weight="33.333333"
       steps="2"
       helper_size="0"
       apply_no_weight="true"
       apply_with_weight="true"
       only_selected="false" />
    <inkscape:path-effect
       effect="bspline"
       id="path-effect25681"
       is_visible="true"
       lpeversion="1"
       weight="33.333333"
       steps="2"
       helper_size="0"
       apply_no_weight="true"
       apply_with_weight="true"
       only_selected="false" />
    <inkscape:path-effect
       effect="bspline"
       id="path-effect25677"
       is_visible="true"
       lpeversion="1"
       weight="33.333333"
       steps="2"
       helper_size="0"
       apply_no_weight="true"
       apply_with_weight="true"
       only_selected="false" />
    <inkscape:path-effect
       effect="bspline"
       id="path-effect25673"
       is_visible="true"
       lpeversion="1"
       weight="33.333333"
       steps="2"
       helper_size="0"
       apply_no_weight="true"
       apply_with_weight="true"
       only_selected="false" />
    <inkscape:path-effect
       effect="bspline"
       id="path-effect25669"
       is_visible="true"
       lpeversion="1"
       weight="33.333333"
       steps="2"
       helper_size="0"
       apply_no_weight="true"
       apply_with_weight="true"
       only_selected="false" />
    <inkscape:path-effect
       effect="bspline"
       id="path-effect25665"
       is_visible="true"
       lpeversion="1"
       weight="33.333333"
       steps="2"
       helper_size="0"
       apply_no_weight="true"
       apply_with_weight="true"
       only_selected="false" />
    <inkscape:path-effect
       effect="bspline"
       id="path-effect25661"
       is_visible="true"
       lpeversion="1"
       weight="33.333333"
       steps="2"
       helper_size="0"
       apply_no_weight="true"
       apply_with_weight="true"
       only_selected="false" />
    <inkscape:path-effect
       effect="bspline"
       id="path-effect25657"
       is_visible="true"
       lpeversion="1"
       weight="33.333333"
       steps="2"
       helper_size="0"
       apply_no_weight="true"
       apply_with_weight="true"
       only_selected="false" />
    <inkscape:path-effect
       effect="bspline"
       id="path-effect25653"
       is_visible="true"
       lpeversion="1"
       weight="33.333333"
       steps="2"
       helper_size="0"
       apply_no_weight="true"
       apply_with_weight="true"
       only_selected="false" />
    <inkscape:path-effect
       effect="bspline"
       id="path-effect25649"
       is_visible="true"
       lpeversion="1"
       weight="33.333333"
       steps="2"
       helper_size="0"
       apply_no_weight="true"
       apply_with_weight="true"
       only_selected="false" />
    <inkscape:path-effect
       effect="bspline"
       id="path-effect25645"
       is_visible="true"
       lpeversion="1"
       weight="33.333333"
       steps="2"
       helper_size="0"
       apply_no_weight="true"
       apply_with_weight="true"
       only_selected="false" />
    <inkscape:path-effect
       effect="bspline"
       id="path-effect25641"
       is_visible="true"
       lpeversion="1"
       weight="33.333333"
       steps="2"
       helper_size="0"
       apply_no_weight="true"
       apply_with_weight="true"
       only_selected="false" />
    <inkscape:path-effect
       effect="bspline"
       id="path-effect25637"
       is_visible="true"
       lpeversion="1"
       weight="33.333333"
       steps="2"
       helper_size="0"
       apply_no_weight="true"
       apply_with_weight="true"
       only_selected="false" />
    <inkscape:path-effect
       effect="bspline"
       id="path-effect25633"
       is_visible="true"
       lpeversion="1"
       weight="33.333333"
       steps="2"
       helper_size="0"
       apply_no_weight="true"
       apply_with_weight="true"
       only_selected="false" />
    <inkscape:path-effect
       effect="bspline"
       id="path-effect25629"
       is_visible="true"
       lpeversion="1"
       weight="33.333333"
       steps="2"
       helper_size="0"
       apply_no_weight="true"
       apply_with_weight="true"
       only_selected="false" />
    <inkscape:path-effect
       effect="bspline"
       id="path-effect25625"
       is_visible="true"
       lpeversion="1"
       weight="33.333333"
       steps="2"
       helper_size="0"
       apply_no_weight="true"
       apply_with_weight="true"
       only_selected="false" />
    <inkscape:path-effect
       effect="bspline"
       id="path-effect25621"
       is_visible="true"
       lpeversion="1"
       weight="33.333333"
       steps="2"
       helper_size="0"
       apply_no_weight="true"
       apply_with_weight="true"
       only_selected="false" />
    <inkscape:path-effect
       effect="bspline"
       id="path-effect25617"
       is_visible="true"
       lpeversion="1"
       weight="33.333333"
       steps="2"
       helper_size="0"
       apply_no_weight="true"
       apply_with_weight="true"
       only_selected="false" />
    <inkscape:path-effect
       effect="bspline"
       id="path-effect25613"
       is_visible="true"
       lpeversion="1"
       weight="33.333333"
       steps="2"
       helper_size="0"
       apply_no_weight="true"
       apply_with_weight="true"
       only_selected="false" />
    <inkscape:path-effect
       effect="bspline"
       id="path-effect9044"
       is_visible="true"
       lpeversion="1"
       weight="33.333333"
       steps="2"
       helper_size="0"
       apply_no_weight="true"
       apply_with_weight="true"
       only_selected="false" />
    <inkscape:path-effect
       effect="bspline"
       id="path-effect9040"
       is_visible="true"
       lpeversion="1"
       weight="33.333333"
       steps="2"
       helper_size="0"
       apply_no_weight="true"
       apply_with_weight="true"
       only_selected="false" />
    <inkscape:path-effect
       effect="bspline"
       id="path-effect9036"
       is_visible="true"
       lpeversion="1"
       weight="33.333333"
       steps="2"
       helper_size="0"
       apply_no_weight="true"
       apply_with_weight="true"
       only_selected="false" />
    <inkscape:path-effect
       effect="bspline"
       id="path-effect9032"
       is_visible="true"
       lpeversion="1"
       weight="33.333333"
       steps="2"
       helper_size="0"
       apply_no_weight="true"
       apply_with_weight="true"
       only_selected="false" />
    <inkscape:path-effect
       effect="bspline"
       id="path-effect9028"
       is_visible="true"
       lpeversion="1"
       weight="33.333333"
       steps="2"
       helper_size="0"
       apply_no_weight="true"
       apply_with_weight="true"
       only_selected="false" />
    <inkscape:path-effect
       effect="bspline"
       id="path-effect9024"
       is_visible="true"
       lpeversion="1"
       weight="33.333333"
       steps="2"
       helper_size="0"
       apply_no_weight="true"
       apply_with_weight="true"
       only_selected="false" />
    <inkscape:path-effect
       effect="bspline"
       id="path-effect9020"
       is_visible="true"
       lpeversion="1"
       weight="33.333333"
       steps="2"
       helper_size="0"
       apply_no_weight="true"
       apply_with_weight="true"
       only_selected="false" />
    <inkscape:path-effect
       effect="bspline"
       id="path-effect5266"
       is_visible="true"
       lpeversion="1"
       weight="33.333333"
       steps="2"
       helper_size="0"
       apply_no_weight="true"
       apply_with_weight="true"
       only_selected="false" />
    <inkscape:path-effect
       effect="bspline"
       id="path-effect4913"
       is_visible="true"
       lpeversion="1"
       weight="33.333333"
       steps="2"
       helper_size="0"
       apply_no_weight="true"
       apply_with_weight="true"
       only_selected="false" />
    <inkscape:path-effect
       effect="bspline"
       id="path-effect4909"
       is_visible="true"
       lpeversion="1"
       weight="33.333333"
       steps="2"
       helper_size="0"
       apply_no_weight="true"
       apply_with_weight="true"
       only_selected="false" />
    <inkscape:path-effect
       effect="bspline"
       id="path-effect4404"
       is_visible="true"
       lpeversion="1"
       weight="33.333333"
       steps="2"
       helper_size="0"
       apply_no_weight="true"
       apply_with_weight="true"
       only_selected="false" />
    <inkscape:path-effect
       effect="bspline"
       id="path-effect3741"
       is_visible="true"
       lpeversion="1"
       weight="33.333333"
       steps="2"
       helper_size="0"
       apply_no_weight="true"
       apply_with_weight="true"
       only_selected="false" />
    <inkscape:path-effect
       effect="bspline"
       id="path-effect2355"
       is_visible="true"
       lpeversion="1"
       weight="33.333333"
       steps="2"
       helper_size="0"
       apply_no_weight="true"
       apply_with_weight="true"
       only_selected="false" />
    <inkscape:path-effect
       effect="bspline"
       id="path-effect417"
       is_visible="true"
       lpeversion="1"
       weight="33.333333"
       steps="2"
       helper_size="0"
       apply_no_weight="true"
       apply_with_weight="true"
       only_selected="false" />
    <inkscape:path-effect
       effect="bspline"
       id="path-effect413"
       is_visible="true"
       lpeversion="1"
       weight="33.333333"
       steps="2"
       helper_size="0"
       apply_no_weight="true"
       apply_with_weight="true"
       only_selected="false" />
    <inkscape:path-effect
       effect="bspline"
       id="path-effect409"
       is_visible="true"
       lpeversion="1"
       weight="33.333333"
       steps="2"
       helper_size="0"
       apply_no_weight="true"
       apply_with_weight="true"
       only_selected="false" />
    <inkscape:path-effect
       effect="bspline"
       id="path-effect405"
       is_visible="true"
       lpeversion="1"
       weight="33.333333"
       steps="2"
       helper_size="0"
       apply_no_weight="true"
       apply_with_weight="true"
       only_selected="false" />
    <inkscape:path-effect
       effect="bspline"
       id="path-effect401"
       is_visible="true"
       lpeversion="1"
       weight="33.333333"
       steps="2"
       helper_size="0"
       apply_no_weight="true"
       apply_with_weight="true"
       only_selected="false" />
    <inkscape:path-effect
       effect="bspline"
       id="path-effect397"
       is_visible="true"
       lpeversion="1"
       weight="33.333333"
       steps="2"
       helper_size="0"
       apply_no_weight="true"
       apply_with_weight="true"
       only_selected="false" />
    <inkscape:path-effect
       effect="bspline"
       id="path-effect389"
       is_visible="true"
       lpeversion="1"
       weight="33.333333"
       steps="2"
       helper_size="0"
       apply_no_weight="true"
       apply_with_weight="true"
       only_selected="false" />
    <inkscape:path-effect
       effect="bspline"
       id="path-effect385"
       is_visible="true"
       lpeversion="1"
       weight="33.333333"
       steps="2"
       helper_size="0"
       apply_no_weight="true"
       apply_with_weight="true"
       only_selected="false" />
    <inkscape:path-effect
       effect="bspline"
       id="path-effect381"
       is_visible="true"
       lpeversion="1"
       weight="33.333333"
       steps="2"
       helper_size="0"
       apply_no_weight="true"
       apply_with_weight="true"
       only_selected="false" />
    <inkscape:path-effect
       effect="bspline"
       id="path-effect377"
       is_visible="true"
       lpeversion="1"
       weight="33.333333"
       steps="2"
       helper_size="0"
       apply_no_weight="true"
       apply_with_weight="true"
       only_selected="false" />
    <inkscape:path-effect
       effect="bspline"
       id="path-effect373"
       is_visible="true"
       lpeversion="1"
       weight="33.333333"
       steps="2"
       helper_size="0"
       apply_no_weight="true"
       apply_with_weight="true"
       only_selected="false" />
    <inkscape:path-effect
       effect="bspline"
       id="path-effect369"
       is_visible="true"
       lpeversion="1"
       weight="33.333333"
       steps="2"
       helper_size="0"
       apply_no_weight="true"
       apply_with_weight="true"
       only_selected="false" />
    <inkscape:path-effect
       effect="bspline"
       id="path-effect365"
       is_visible="true"
       lpeversion="1"
       weight="33.333333"
       steps="2"
       helper_size="0"
       apply_no_weight="true"
       apply_with_weight="true"
       only_selected="false" />
    <inkscape:path-effect
       effect="bspline"
       id="path-effect120"
       is_visible="true"
       lpeversion="1"
       weight="33.333333"
       steps="2"
       helper_size="0"
       apply_no_weight="true"
       apply_with_weight="true"
       only_selected="false" />
    <inkscape:path-effect
       effect="bspline"
       id="path-effect116"
       is_visible="true"
       lpeversion="1"
       weight="33.333333"
       steps="2"
       helper_size="0"
       apply_no_weight="true"
       apply_with_weight="true"
       only_selected="false" />
    <inkscape:path-effect
       effect="bspline"
       id="path-effect108"
       is_visible="true"
       lpeversion="1"
       weight="33.333333"
       steps="2"
       helper_size="0"
       apply_no_weight="true"
       apply_with_weight="true"
       only_selected="false" />
    <inkscape:path-effect
       effect="bspline"
       id="path-effect104"
       is_visible="true"
       lpeversion="1"
       weight="33.333333"
       steps="2"
       helper_size="0"
       apply_no_weight="true"
       apply_with_weight="true"
       only_selected="false" />
    <inkscape:path-effect
       effect="bspline"
       id="path-effect100"
       is_visible="true"
       lpeversion="1"
       weight="33.333333"
       steps="2"
       helper_size="0"
       apply_no_weight="true"
       apply_with_weight="true"
       only_selected="false" />
    <inkscape:path-effect
       effect="bspline"
       id="path-effect96"
       is_visible="true"
       lpeversion="1"
       weight="33.333333"
       steps="2"
       helper_size="0"
       apply_no_weight="true"
       apply_with_weight="true"
       only_selected="false" />
    <inkscape:path-effect
       effect="bspline"
       id="path-effect92"
       is_visible="true"
       lpeversion="1"
       weight="33.333333"
       steps="2"
       helper_size="0"
       apply_no_weight="true"
       apply_with_weight="true"
       only_selected="false" />
    <inkscape:path-effect
       effect="bspline"
       id="path-effect88"
       is_visible="true"
       lpeversion="1"
       weight="33.333333"
       steps="2"
       helper_size="0"
       apply_no_weight="true"
       apply_with_weight="true"
       only_selected="false" />
    <inkscape:path-effect
       effect="bspline"
       id="path-effect1745"
       is_visible="true"
       lpeversion="1"
       weight="33.333333"
       steps="2"
       helper_size="0"
       apply_no_weight="true"
       apply_with_weight="true"
       only_selected="false" />
    <inkscape:path-effect
       effect="bspline"
       id="path-effect1741"
       is_visible="true"
       lpeversion="1"
       weight="33.333333"
       steps="2"
       helper_size="0"
       apply_no_weight="true"
       apply_with_weight="true"
       only_selected="false" />
    <pattern
       id="EMFhbasepattern"
       patternUnits="userSpaceOnUse"
       width="6"
       height="6"
       x="0"
       y="0" />
    <rect
       x="253.38664"
       y="59.530598"
       width="235.06953"
       height="105.32336"
       id="rect3429" />
  </defs>
  <g
     inkscape:label="Layer 1"
     inkscape:groupmode="layer"
     id="layer1">
    <g
       id="g33902"
       transform="translate(88.649203,128.409)">
      <g
         id="g3315"
         transform="matrix(0.64588853,0,0,0.57408665,196.26714,-13.791945)">
        <path
           style="fill:#ff00ff;stroke-width:1.07935"
           d=""
           id="path425"
           transform="matrix(0.2367895,0,0,0.25071555,-230.86279,-22.127191)" />
        <path
           style="fill:#ff00ff;stroke-width:0.269836"
           d=""
           id="path503"
           transform="matrix(0.2367895,0,0,0.25071555,-230.86279,-22.127191)" />
        <path
           style="fill:#ff00ff;stroke-width:0.269836"
           d=""
           id="path542"
           transform="matrix(0.2367895,0,0,0.25071555,-230.86279,-22.127191)" />
        <g
           id="g970"
           transform="matrix(0.48125158,0,0,0.60289881,-246.76018,-32.971441)">
          <g
             id="g1173"
             transform="matrix(1,0,0,1.0022552,0,-0.04191947)">
            <g
               id="g7481"
               transform="matrix(0.99923889,0,0,0.94252954,-78.060313,-75.743555)" />
          </g>
          <g
             id="g1176" />
        </g>
      </g>
      <g
         id="g2276">
        <g
           id="g3831"
           transform="matrix(1.2487235,0,0,1.2455484,-147.33141,-95.20914)">
          <path
             style="fill:none;stroke:#000000;stroke-width:0.217253;stroke-linecap:butt;stroke-linejoin:miter;stroke-miterlimit:4;stroke-dasharray:none;stroke-opacity:1"
             d="m -209.12933,-4.4877465 c 0,0 -0.49591,-0.7149613 -0.58264,-1.1500719 -0.097,-0.4864653 -0.0793,-1.0409896 0.0971,-1.4950998 0.19129,-0.4925478 0.76995,-0.6630485 0.97107,-1.1500719 0.11466,-0.2776466 0.17413,-0.6247532 0.0971,-0.9200609 -0.76478,-2.932318 -4.10375,-4.090944 -5.14666,-6.900443 -0.49777,-1.340939 -1.0893,-2.476385 -0.63492,-3.925176 0,0 0.042,-0.173087 0.1003,-0.240451 0.0752,-0.08683 0.25423,-0.179476 0.25423,-0.179476"
             id="path124"
             sodipodi:nodetypes="cssaasssc"
             transform="matrix(0.64588853,0,0,0.57408665,196.26715,-13.791945)" />
          <path
             style="fill:#89014b;fill-opacity:1;stroke:#000000;stroke-width:0.136435;stroke-linecap:butt;stroke-linejoin:miter;stroke-miterlimit:4;stroke-dasharray:none;stroke-opacity:1"
             d="m -213.38046,-18.904524 c 0.10528,0.169674 0.31557,0.508594 0.52597,0.759476 0.21041,0.250882 0.42077,0.413619 0.64223,0.508505 0.22145,0.09488 0.45395,0.12201 0.61996,0.07454 0.16602,-0.04747 0.26567,-0.16951 0.29891,-0.338973 0.0332,-0.169462 5e-5,-0.386459 -0.34315,-1.023891 -0.34321,-0.637431 -0.99647,-1.695255 -1.40612,-2.251356 -0.40966,-0.556101 -0.57575,-0.61035 -0.6921,-0.583226 -0.11635,0.02712 -0.18279,0.135631 -0.22276,0.3672 -0.04,0.23157 -0.0535,0.586169 -0.013,0.915096 0.0405,0.328926 0.13502,0.632191 0.22487,0.861794 0.0899,0.229603 0.17499,0.385521 0.21748,0.463341 0.0425,0.07782 0.0424,0.07782 0.14769,0.24749 z"
             id="path1739"
             inkscape:path-effect="#path-effect1741"
             inkscape:original-d="m -213.48574,-19.074198 c 0.21062,0.339309 0.42087,0.678255 0.63113,1.017171 0.2105,0.162898 0.42087,0.32563 0.63112,0.488225 0.23266,0.02728 0.46517,0.05433 0.69757,0.08138 0.0998,-0.121914 0.19943,-0.24397 0.29896,-0.366169 -0.0331,-0.216855 -0.0663,-0.433852 -0.0996,-0.650997 -0.65317,-1.057717 -1.30643,-2.115542 -1.95982,-3.173532 -0.16597,-0.0541 -0.33206,-0.108347 -0.49826,-0.162746 -0.0663,0.108647 -0.13275,0.217148 -0.19931,0.325496 -0.0133,0.354704 -0.0268,0.709305 -0.0406,1.063583 0.0947,0.303526 0.18921,0.606784 0.28346,0.909798 0.0854,0.156188 0.17052,0.312114 0.25543,0.467796 z"
             sodipodi:nodetypes="cccccccccc"
             transform="matrix(0.64588853,0,0,0.57408665,196.26715,-13.791945)" />
          <path
             style="fill:none;stroke:#000000;stroke-width:0.217253;stroke-linecap:butt;stroke-linejoin:miter;stroke-miterlimit:4;stroke-dasharray:none;stroke-opacity:1"
             d="m -195.44016,6.6639012 c -1.00698,-1.5991754 -2.01404,-3.1984855 -2.88382,-4.7707331 -0.86978,-1.57224765 -1.60219,-3.1173407 -2.36323,-4.7166981 -0.76104,-1.5993574 -1.55067,-3.2528884 -2.14005,-4.4388589 -0.58937,-1.1859706 -0.97847,-1.9043062 -1.36184,-2.5548968 -0.38338,-0.6505903 -0.76103,-1.2333923 -1.23595,-1.7958923 -0.47491,-0.562501 -1.04711,-1.104637 -1.54493,-1.551921 -0.49782,-0.447284 -0.92125,-0.799678 -1.32753,-1.172404 -0.40628,-0.372726 -0.79537,-0.765776 -1.24215,-1.239418 -0.44678,-0.473643 -0.88029,-0.949923 -1.2742,-1.387935 -0.39391,-0.438012 -0.50257,-0.562763 -0.61139,-0.687695"
             id="path90"
             inkscape:path-effect="#path-effect92"
             inkscape:original-d="m -195.44016,6.6639012 c -1.00696,-1.5991873 -2.01402,-3.1984999 -3.02125,-4.7980233 -0.7323,-1.5449793 -1.46471,-3.0900725 -2.19728,-4.6353822 -0.78951,-1.6534067 -1.57915,-3.306933 -2.36893,-4.9606758 -0.38898,-0.7181962 -0.77807,-1.4365348 -1.16731,-2.15505 -0.37753,-0.5826589 -0.75518,-1.1654609 -1.13297,-1.7484329 -0.57208,-0.542 -1.14427,-1.084137 -1.71662,-1.626451 -0.4233,-0.352244 -0.84673,-0.704636 -1.2703,-1.057193 -0.38898,-0.392908 -0.77807,-0.785959 -1.1673,-1.179175 -0.50432,-0.554085 -0.93829,-1.029946 -1.51334,-1.66265 -0.21356,-0.242643 -0.32159,-0.367946 -0.42979,-0.493419"
             sodipodi:nodetypes="ccccccccccc"
             transform="matrix(0.64588853,0,0,0.57408665,196.26715,-13.791945)" />
          <path
             style="fill:none;stroke:#000000;stroke-width:0.217253;stroke-linecap:butt;stroke-linejoin:miter;stroke-miterlimit:4;stroke-dasharray:none;stroke-opacity:1"
             d="m -210.16877,-9.8445656 c -1.92245,-0.7996044 -3.84507,-1.5992734 -5.20693,-2.1143304 -1.36187,-0.515057 -2.16294,-0.745465 -2.94687,-1.057188 -0.78394,-0.311722 -1.55068,-0.704773 -2.60927,-1.341797 -1.0586,-0.637024 -2.40899,-1.518004 -3.74796,-2.338019 -1.33898,-0.820015 -2.66647,-1.579008 -3.49617,-2.012749 -0.82971,-0.433742 -1.16159,-0.54217 -1.46488,-0.582862 -0.3033,-0.04069 -0.57796,-0.01359 -0.76112,0.04741 -0.18316,0.061 -0.27472,0.155887 -0.30903,0.291498 -0.0343,0.13561 -0.0114,0.311806 0.063,0.501563 0.0744,0.189758 0.20032,0.393061 0.48646,0.675245 0.28614,0.282184 0.73245,0.643259 1.17861,1.004213"
             id="path98"
             inkscape:path-effect="#path-effect100"
             inkscape:original-d="m -210.16877,-9.8445656 c -1.92249,-0.7995194 -3.8451,-1.5991934 -5.76785,-2.3990144 -0.80098,-0.230267 -1.60205,-0.460677 -2.40327,-0.69124 -0.76665,-0.39292 -1.53339,-0.785971 -2.30028,-1.179181 -1.3503,-0.88086 -2.70069,-1.761834 -4.05122,-2.642979 -1.32742,-0.758878 -2.65491,-1.51787 -3.98256,-2.277032 -0.33176,-0.10828 -0.66364,-0.216707 -0.99565,-0.325288 -0.27453,0.02728 -0.54919,0.05439 -0.82397,0.08132 -0.0914,0.09503 -0.18298,0.189905 -0.27466,0.284629 0.023,0.17635 0.0459,0.352546 0.0687,0.528594 0.12602,0.203459 0.2519,0.406765 0.37766,0.609922 0.44647,0.36126 0.89278,0.722337 1.33897,1.083255"
             sodipodi:nodetypes="cccccccccccc"
             transform="matrix(0.64588853,0,0,0.57408665,196.26715,-13.791945)" />
          <path
             style="fill:none;stroke:#000000;stroke-width:0.217253;stroke-linecap:butt;stroke-linejoin:miter;stroke-miterlimit:4;stroke-dasharray:none;stroke-opacity:1"
             d="m -225.82436,-12.162257 c 0.0915,-0.420055 0.18308,-0.840216 0.23459,-1.240042 0.0515,-0.399826 0.0629,-0.779321 -0.006,-1.192702 -0.0686,-0.413381 -0.21741,-0.860645 -0.41193,-1.246939 -0.19453,-0.386293 -0.43485,-0.711579 -0.69454,-1.029114 -0.25969,-0.317536 -0.5385,-0.627009 -0.78731,-0.762 -0.24881,-0.134991 -0.46708,-0.0948 -0.68546,-0.05459"
             id="path102"
             inkscape:path-effect="#path-effect104"
             inkscape:original-d="m -225.82436,-12.162257 c 0.0917,-0.420018 0.18323,-0.840184 0.27466,-1.260498 0.0116,-0.379365 0.023,-0.758861 0.0343,-1.138516 -0.14865,-0.447134 -0.29742,-0.894398 -0.44632,-1.341822 -0.24021,-0.325145 -0.48053,-0.650433 -0.72098,-0.975869 -0.27894,-0.309632 -0.55774,-0.619109 -0.83717,-0.929259 -0.21815,0.04044 -0.43642,0.08065 -0.65485,0.120575"
             sodipodi:nodetypes="ccccccc"
             transform="matrix(0.64588853,0,0,0.57408665,196.26715,-13.791945)" />
          <path
             style="fill:#89014b;fill-opacity:1;stroke:#000000;stroke-width:0.130352;stroke-linecap:butt;stroke-linejoin:miter;stroke-miterlimit:4;stroke-dasharray:none;stroke-opacity:1"
             d="m -228.05167,-14.691733 c 0.0558,-0.03897 0.16737,-0.116908 0.25032,-0.238838 0.083,-0.121931 0.13731,-0.287959 0.16164,-0.474304 0.0243,-0.186345 0.0186,-0.39302 -0.009,-0.603097 -0.0272,-0.210077 -0.0758,-0.423535 -0.13731,-0.635325 -0.0615,-0.211791 -0.13589,-0.421857 -0.22887,-0.643803 -0.093,-0.221946 -0.20455,-0.455744 -0.29753,-0.638732 -0.093,-0.182987 -0.16736,-0.315115 -0.24744,-0.418483 -0.0801,-0.103369 -0.16591,-0.177914 -0.24462,-0.206794 -0.0787,-0.02888 -0.15025,-0.01195 -0.19751,0.03215 -0.0473,0.04409 -0.0702,0.115252 -0.0816,0.211861 -0.0114,0.09661 -0.0114,0.218586 0.006,0.403269 0.0172,0.184683 0.0515,0.432033 0.0729,0.608241 0.0214,0.176207 0.03,0.281225 0.0615,0.493008 0.0315,0.211783 0.0858,0.530286 0.15307,0.81661 0.0673,0.286324 0.14736,0.540463 0.21032,0.72344 0.063,0.182976 0.10873,0.294801 0.18459,0.384557 0.0759,0.08976 0.18171,0.15752 0.23456,0.191354 0.0529,0.03383 0.053,0.03386 0.10878,-0.0051 z"
             id="path106"
             inkscape:path-effect="#path-effect108"
             inkscape:original-d="m -228.10747,-14.652761 c 0.11171,-0.07778 0.22329,-0.155715 0.33474,-0.233804 0.0545,-0.165881 0.10885,-0.331911 0.16308,-0.498101 -0.006,-0.206546 -0.0113,-0.413234 -0.0172,-0.620083 -0.0485,-0.213323 -0.0971,-0.426789 -0.14592,-0.640415 -0.0743,-0.209935 -0.14865,-0.420012 -0.22316,-0.630249 -0.11145,-0.233656 -0.22303,-0.467454 -0.33474,-0.701407 -0.0743,-0.132 -0.14864,-0.264148 -0.22316,-0.396445 -0.0857,-0.0744 -0.17153,-0.148944 -0.25749,-0.223638 -0.0714,0.01709 -0.14293,0.03406 -0.21458,0.0508 -0.0227,0.07131 -0.0456,0.142468 -0.0687,0.213471 1.2e-4,0.122142 1.2e-4,0.244119 0,0.365953 0.0345,0.247512 0.0688,0.494866 0.10299,0.742071 0.009,0.105192 0.0173,0.210231 0.0257,0.315122 0.0545,0.318669 0.10885,0.637174 0.16308,0.955542 0.0802,0.254285 0.16034,0.508415 0.24033,0.762398 0.0459,0.11197 0.0917,0.223786 0.13733,0.335454 0.10599,0.06792 0.21184,0.135685 0.31757,0.203306 z"
             transform="matrix(0.64588853,0,0,0.57408665,196.26715,-13.791945)" />
          <path
             style="fill:none;stroke:#000000;stroke-width:0.217253;stroke-linecap:butt;stroke-linejoin:miter;stroke-miterlimit:4;stroke-dasharray:none;stroke-opacity:1"
             d="m -225.67433,-12.894908 c 0.1378,0.316809 0.27537,0.633077 0.37998,0.854668 0.10462,0.22159 0.17624,0.348525 0.24755,0.474929"
             id="path114"
             inkscape:path-effect="#path-effect116"
             inkscape:original-d="m -225.67433,-12.894908 c 0.13798,0.316731 0.27554,0.633002 0.4127,0.948811 0.072,0.127392 0.14363,0.254318 0.21483,0.380786"
             transform="matrix(0.64588853,0,0,0.57408665,196.26715,-13.791945)" />
          <path
             style="fill:none;stroke:#000000;stroke-width:0.304154;stroke-linecap:butt;stroke-linejoin:miter;stroke-miterlimit:4;stroke-dasharray:none;stroke-opacity:1"
             d="m -229.80204,-14.604345 c 0,0 0,0 0,0 0,0 0,0 0,0 0,0 0,0 0,0 z"
             id="path118"
             inkscape:path-effect="#path-effect120"
             inkscape:original-d="m -229.80204,-14.604345 c 1.3e-4,1.48e-4 1.3e-4,1.48e-4 0,0 v 0 c 1.3e-4,1.48e-4 0,0 0,0 z"
             sodipodi:nodetypes="ccccc"
             transform="matrix(0.64588853,0,0,0.57408665,196.26715,-13.791945)" />
          <path
             style="fill:none;stroke:#000000;stroke-width:0.217253;stroke-linecap:butt;stroke-linejoin:miter;stroke-miterlimit:4;stroke-dasharray:none;stroke-opacity:1"
             d="m -228.05162,-14.691739 c 0.004,0.358098 0.009,0.716284 0.0134,1.074426 0,0 0.0634,0.425321 0.0634,0.425321 0.018,0.180057 0.0343,0.343636 0.15351,0.991288 0.11922,0.647653 0.28334,1.47178 0.48283,2.2291417 0.19949,0.7573619 0.3273,1.0550004 0.43695,1.2256751 0.10964,0.1706748 0.20083,0.2146437 0.2915,0.2583618"
             id="path363"
             inkscape:path-effect="#path-effect365"
             inkscape:original-d="m -228.05162,-14.691739 c 0.004,0.358104 0.0134,1.074426 0.0134,1.074426 l 0.0634,0.425321 c 0,0 0.0345,0.343615 0.0539,0.540172 0.21913,1.098708 0.36808,1.925858 0.60045,3.014987 0.1786,0.4238699 0.30794,0.7208505 0.43688,1.0174035 0.0916,0.044431 0.18279,0.088397 0.27356,0.1319041"
             sodipodi:nodetypes="csccccc"
             transform="matrix(0.64588853,0,0,0.57408665,196.26715,-13.791945)" />
          <path
             style="fill:none;stroke:#000000;stroke-width:0.217253;stroke-linecap:butt;stroke-linejoin:miter;stroke-miterlimit:4;stroke-dasharray:none;stroke-opacity:1"
             d="m -222.71737,-13.894037 c 0.0979,0.06616 0.19564,0.132166 0.2815,0.248158 0.0859,0.115993 0.15971,0.281352 0.19951,0.533557 0.0398,0.252205 0.0455,0.591039 0.003,0.926473 -0.0429,0.335435 -0.13448,0.667501 -0.2575,1.053782 -0.12303,0.386281 -0.27753,0.826767 -0.44919,1.2570937 -0.17167,0.4303269 -0.36049,0.8504858 -0.52357,1.1927146 -0.16308,0.3422288 -0.3004,0.6065214 -0.30319,0.8234303 -0.003,0.2169089 0.12908,0.386654 0.31607,0.5505414 0.187,0.1638874 0.42925,0.3223918 0.671,0.4805711"
             id="path367"
             inkscape:path-effect="#path-effect369"
             inkscape:original-d="m -222.71737,-13.894037 c 0.0979,0.0662 0.1956,0.132223 0.29318,0.198061 0.0743,0.166035 0.14813,0.331404 0.2219,0.496853 0.006,0.339002 0.0115,0.677839 0.0172,1.016534 -0.0914,0.332225 -0.18298,0.664284 -0.27466,0.996202 -0.15437,0.440658 -0.30886,0.881145 -0.46349,1.3214892 -0.1887,0.4203256 -0.37752,0.840486 -0.56648,1.2604983 -0.1372,0.2644563 -0.27453,0.5287473 -0.41199,0.792896 0.13174,0.169578 0.26362,0.3393055 0.39482,0.508267 0.24267,0.1589709 0.48492,0.3174746 0.72676,0.4755206"
             sodipodi:nodetypes="ccccccccc"
             transform="matrix(0.64588853,0,0,0.57408665,196.26715,-13.791945)" />
          <path
             style="fill:#89014b;fill-opacity:1;stroke:#000000;stroke-width:0.130352;stroke-linecap:butt;stroke-linejoin:miter;stroke-miterlimit:4;stroke-dasharray:none;stroke-opacity:1"
             d="m -224.99172,-11.027107 c 0.0602,0.01697 0.18032,0.05085 0.3176,0.03387 0.13727,-0.01697 0.29177,-0.08475 0.45482,-0.216874 0.16304,-0.132129 0.3347,-0.328654 0.48919,-0.542111 0.15449,-0.213457 0.29182,-0.443867 0.4177,-0.687824 0.12589,-0.243956 0.24029,-0.501394 0.36047,-0.813164 0.12018,-0.311771 0.24597,-0.67742 0.28897,-0.952004 0.043,-0.274585 0.003,-0.457548 -0.0599,-0.559264 -0.0629,-0.101716 -0.14871,-0.122045 -0.2518,-0.05089 -0.1031,0.07115 -0.22325,0.233797 -0.35773,0.416776 -0.13447,0.182979 -0.28324,0.386278 -0.48065,0.681082 -0.19742,0.294805 -0.44347,0.681086 -0.64088,1.019941 -0.19741,0.338854 -0.34618,0.630254 -0.44346,0.843732 -0.0973,0.213478 -0.14305,0.349021 -0.1602,0.471046 -0.0172,0.122025 -0.006,0.230449 -1e-5,0.284583 0.006,0.05413 0.006,0.05413 0.0659,0.0711 z"
             id="path371"
             inkscape:path-effect="#path-effect373"
             inkscape:original-d="m -225.05188,-11.044073 c 0.12029,0.03406 0.24045,0.06792 0.36049,0.101656 0.15462,-0.06762 0.30912,-0.135389 0.46349,-0.203311 0.17179,-0.196381 0.34345,-0.392903 0.51498,-0.589585 0.13746,-0.230267 0.27479,-0.460677 0.41199,-0.69124 0.1147,-0.257315 0.2291,-0.514754 0.34332,-0.77257 0.12615,-0.365753 0.25193,-0.731403 0.37766,-1.097851 -0.0399,-0.182848 -0.0799,-0.365822 -0.12016,-0.548926 -0.0857,-0.02016 -0.17153,-0.04049 -0.2575,-0.06099 -0.12003,0.162795 -0.24019,0.325436 -0.36048,0.487934 -0.14865,0.20346 -0.29742,0.40676 -0.44633,0.609917 -0.24592,0.386439 -0.49197,0.772718 -0.73814,1.158849 -0.14865,0.29156 -0.29742,0.582961 -0.44632,0.874213 -0.0456,0.135691 -0.0914,0.271228 -0.13734,0.406612 0.0116,0.108586 0.023,0.217014 0.0343,0.325293 z"
             sodipodi:nodetypes="ccccccccccccccc"
             transform="matrix(0.64588853,0,0,0.57408665,196.26715,-13.791945)" />
          <path
             style="fill:none;stroke:#000000;stroke-width:0.217253;stroke-linecap:butt;stroke-linejoin:miter;stroke-miterlimit:4;stroke-dasharray:none;stroke-opacity:1"
             d="m -224.99744,-11.08124 c 1e-5,0 1e-5,0 -0.0254,0.03781 -0.0254,0.03781 -0.0761,0.113355 -0.38268,0.616514 -0.30662,0.5031585 -0.72973,1.2119014 -0.99489,1.710394 -0.26515,0.4984926 -0.33382,0.7221345 -0.3481,0.9661386 -0.0143,0.2440041 0.0258,0.5083018 0.22324,0.8810274 0.19746,0.3727256 0.55221,0.8538681 1.01572,1.3214615 0.46351,0.4675933 1.03604,0.9218952 1.49607,1.2632662 0.46003,0.3413709 0.80784,0.5701001 1.15516,0.7985079"
             id="path379"
             inkscape:path-effect="#path-effect381"
             inkscape:original-d="m -224.99744,-11.08124 c 4.1e-4,4.61e-4 2.4e-4,2.5e-4 1e-5,0 -0.0559,0.07217 -0.11206,0.144045 -0.21446,0.319575 -0.49206,0.8427813 -0.92304,1.5468247 -1.38495,2.3199123 -0.0685,0.223786 -0.1372,0.4474182 -0.206,0.6709081 0.0402,0.2644505 0.0803,0.5287416 0.12017,0.7928959 0.3549,0.4813111 0.70965,0.9624569 1.0643,1.4434775 0.57234,0.4542013 1.14482,0.9085597 1.71662,1.3621483 0.34824,0.2292006 0.69605,0.4579312 1.04346,0.6862055"
             sodipodi:nodetypes="cccccccc"
             transform="matrix(0.64588853,0,0,0.57408665,196.26715,-13.791945)" />
          <path
             style="fill:#89014b;fill-opacity:1;stroke:#000000;stroke-width:0.130352;stroke-linecap:butt;stroke-linejoin:miter;stroke-miterlimit:4;stroke-dasharray:none;stroke-opacity:1"
             d="m -222.38823,-5.6022547 c 0.0716,-0.027119 0.21461,-0.081336 0.32328,-0.179552 0.10867,-0.098216 0.18306,-0.2405353 0.24887,-0.4505899 0.0658,-0.2100547 0.12303,-0.4879108 0.15451,-0.8064131 0.0315,-0.3185024 0.0372,-0.6776681 0.0286,-1.002954 -0.009,-0.3252859 -0.0315,-0.6166867 -0.0772,-0.8708103 -0.0458,-0.2541235 -0.11443,-0.4709884 -0.18303,-0.6065433 -0.0686,-0.1355548 -0.13729,-0.1897905 -0.22321,-0.1627356 -0.0859,0.027055 -0.18891,0.1354832 -0.25758,0.2846322 -0.0687,0.1491489 -0.103,0.338889 -0.13733,0.5422017 -0.0343,0.2033126 -0.0687,0.4201624 -0.103,0.6641378 -0.0343,0.2439754 -0.0687,0.5150454 -0.0944,0.7793507 -0.0257,0.2643053 -0.0429,0.5218212 -0.0572,0.7725703 -0.0143,0.2507491 -0.0257,0.494712 -0.0114,0.6539876 0.0144,0.1592756 0.0544,0.2337947 0.11166,0.2879689 0.0573,0.054174 0.13164,0.088058 0.16876,0.1049631 0.0371,0.016905 0.0371,0.016905 0.10865,-0.010214 z"
             id="path383"
             inkscape:path-effect="#path-effect385"
             inkscape:original-d="m -222.45978,-5.5751358 c 0.14318,-0.054049 0.28623,-0.1082793 0.42915,-0.1626468 0.0745,-0.1421607 0.1489,-0.2844752 0.22316,-0.4269378 0.0573,-0.2777092 0.11457,-0.5555551 0.17166,-0.8335605 0.006,-0.3590269 0.0115,-0.7181963 0.0172,-1.0775193 -0.0227,-0.2912641 -0.0456,-0.5826649 -0.0687,-0.8742194 -0.0685,-0.2167124 -0.1372,-0.4335672 -0.206,-0.6505815 -0.0685,-0.054049 -0.1372,-0.1082736 -0.20599,-0.1626411 -0.10287,0.1085812 -0.20587,0.2170086 -0.309,0.3252879 -0.0342,0.1899103 -0.0685,0.3796554 -0.10299,0.5692581 -0.0342,0.2170142 -0.0685,0.433869 -0.103,0.6505814 -0.0342,0.271228 -0.0685,0.5423022 -0.103,0.8132226 -0.017,0.2576788 -0.0342,0.5151924 -0.0515,0.7725637 -0.0113,0.244124 -0.0227,0.4880884 -0.0343,0.7319049 0.0402,0.0747 0.0802,0.14924 0.12016,0.2236379 0.0745,0.034058 0.1489,0.067917 0.22316,0.1016499 z"
             transform="matrix(0.64588853,0,0,0.57408665,196.26715,-13.791945)" />
          <path
             style="fill:none;stroke:#000000;stroke-width:0.217253;stroke-linecap:butt;stroke-linejoin:miter;stroke-miterlimit:4;stroke-dasharray:none;stroke-opacity:1"
             d="m -216.98376,-0.37048978 c -0.31456,-0.18288664 -0.62927,-0.3658614 -0.98118,-0.60981921 -0.35191,-0.24395781 -0.74101,-0.54891581 -1.03858,-0.85724121 -0.29757,-0.3083255 -0.50357,-0.6200607 -0.6724,-0.9860102 -0.16883,-0.3659496 -0.30043,-0.7861065 -0.38055,-1.1961198 -0.0801,-0.4100132 -0.10873,-0.8098415 -0.1259,-1.2198522 -0.0172,-0.4100107 -0.0229,-0.8301595 -0.0515,-1.2164427 -0.0286,-0.3862832 -0.0801,-0.7386659 -0.19164,-1.0605698 -0.11155,-0.3219039 -0.28321,-0.6133042 -0.41358,-0.796873 -0.13038,-0.1835688 -0.21959,-0.25932 -0.31316,-0.3173047 -0.0936,-0.057985 -0.19159,-0.098106 -0.27762,-0.1200847 -0.086,-0.021979 -0.15999,-0.025717 -0.23423,-0.029469"
             id="path387"
             inkscape:path-effect="#path-effect389"
             inkscape:original-d="m -216.98376,-0.37048978 c -0.31459,-0.18283099 -0.6293,-0.36580435 -0.94414,-0.54893149 -0.38898,-0.30481323 -0.77808,-0.60976883 -1.1673,-0.91487823 -0.20587,-0.3115906 -0.41187,-0.6233237 -0.61799,-0.9352048 -0.13148,-0.4200294 -0.26309,-0.8401842 -0.39482,-1.2605041 -0.0285,-0.3996914 -0.0571,-0.7995196 -0.0858,-1.1995072 -0.006,-0.4200238 -0.0113,-0.8401785 -0.0172,-1.2604984 -0.0514,-0.3522552 -0.10287,-0.7046414 -0.15449,-1.0571927 -0.17154,-0.2912584 -0.3432,-0.5826592 -0.51499,-0.8742137 -0.089,-0.075554 -0.17822,-0.1512903 -0.26769,-0.2273114 -0.0977,-0.039867 -0.19572,-0.079968 -0.29394,-0.1203249 -0.0738,-0.00342 -0.14776,-0.00723 -0.22199,-0.01122"
             sodipodi:nodetypes="cccccccccc"
             transform="matrix(0.64588853,0,0,0.57408665,196.26715,-13.791945)" />
          <path
             style="fill:none;stroke:#000000;stroke-width:0.217253;stroke-linecap:butt;stroke-linejoin:miter;stroke-miterlimit:4;stroke-dasharray:none;stroke-opacity:1"
             d="m -198.72719,15.828192 c -1.27844,-1.379944 -2.55701,-2.760034 -3.51999,-3.680116 -0.96297,-0.920081 -1.61033,-1.380097 -2.15251,-1.744296 -0.54219,-0.364199 -0.97916,-0.6325434 -1.49707,-0.8817475 -0.51791,-0.2492041 -1.11672,-0.4792137 -2.03924,-0.8721574 -0.92253,-0.3929437 -2.16871,-0.9488016 -3.24499,-1.5046631 -1.07628,-0.5558615 -1.98259,-1.1117178 -2.77563,-1.610085 -0.79305,-0.4983671 -1.47279,-0.9392236 -2.13636,-1.3705058 -0.66357,-0.4312822 -1.31093,-0.8529639 -1.78028,-1.1309141 -0.46935,-0.2779502 -0.76067,-0.4121223 -1.18958,-0.7954508 -0.42891,-0.3833285 -0.99535,-1.0158534 -1.52945,-1.69631277 -0.5341,-0.68045936 -1.03581,-1.40883264 -1.40806,-1.98386913 -0.37226,-0.5750365 -0.61502,-0.9967266 -0.71218,-1.4184425 -0.0972,-0.4217159 -0.0486,-0.8433911 -0.0221,-1.117349 0.0265,-0.2739579 0.0281,-0.3203197 0.0416,-0.5880918 0.0135,-0.267772 0.0218,-0.4056494 0.0393,-0.5316965 0.0175,-0.1260472 0.0687,-0.3453111 0.1076,-0.5118307"
             id="path399"
             inkscape:path-effect="#path-effect401"
             inkscape:original-d="m -198.72719,15.828192 c -1.27845,-1.379935 -2.55702,-2.760029 -3.83572,-4.140266 -0.64727,-0.459891 -1.29463,-0.919907 -1.94214,-1.380089 -0.43686,-0.268203 -0.87383,-0.5365494 -1.31094,-0.8050493 -0.59871,-0.2298743 -1.19752,-0.4598796 -1.79648,-0.69005 -1.2461,-0.555726 -2.49228,-1.111583 -3.73861,-1.6676052 -0.90622,-0.5557317 -1.81253,-1.1115887 -2.71899,-1.6676051 -0.67963,-0.4407205 -1.35937,-0.881572 -2.03924,-1.3225887 -0.64727,-0.4215501 -1.29463,-0.8432369 -1.94214,-1.2650774 -0.2912,-0.1340278 -0.58251,-0.2682038 -0.87396,-0.4025277 -0.56634,-0.6324021 -1.13278,-1.2649294 -1.69937,-1.89762185 -0.50159,-0.72824277 -1.00331,-1.45661083 -1.50515,-2.18513835 -0.24264,-0.4215558 -0.48541,-0.8432426 -0.7283,-1.2650831 0.0487,-0.4215558 0.0972,-0.8432369 0.14566,-1.2650831 0.005,-0.1260601 0.006,-0.1724427 0.0131,-0.3788296 0.02,-0.3291493 0.0284,-0.4670214 0.0365,-0.6053549 0.0269,-0.1137013 0.11672,-0.4995588 0.11672,-0.4995588"
             sodipodi:nodetypes="ccccccccccccccccc"
             transform="matrix(0.64588853,0,0,0.57408665,196.26715,-13.791945)" />
          <path
             style="fill:none;stroke:#000000;stroke-width:0.304154;stroke-linecap:butt;stroke-linejoin:miter;stroke-miterlimit:4;stroke-dasharray:none;stroke-opacity:1"
             d="m -215.83362,-1.285368 c 0,0 0,0 0,0 z"
             id="path403"
             inkscape:path-effect="#path-effect405"
             inkscape:original-d="m -215.83362,-1.285368 c -0.11432,-0.081175 -0.22876,-0.1624987 0,0 z"
             transform="matrix(0.64588853,0,0,0.57408665,196.26715,-13.791945)" />
          <path
             style="fill:none;stroke:#000000;stroke-width:0.217253;stroke-linecap:butt;stroke-linejoin:miter;stroke-miterlimit:4;stroke-dasharray:none;stroke-opacity:1"
             d="m -221.46414,-11.267711 c 1.35056,1.08442 2.70096,2.1687227 4.05122,3.2529019"
             id="path407"
             inkscape:path-effect="#path-effect409"
             inkscape:original-d="m -221.46414,-11.267711 c 1.35053,1.084451 2.70094,2.1687532 4.05122,3.2529019"
             transform="matrix(0.64588853,0,0,0.57408665,196.26715,-13.791945)" />
          <path
             style="fill:none;stroke:#000000;stroke-width:0.217253;stroke-linecap:butt;stroke-linejoin:miter;stroke-miterlimit:4;stroke-dasharray:none;stroke-opacity:1"
             d="m -217.00093,-9.1533252 c -0.12589,2.12808 -0.25177,4.2560207 -0.37765,6.3838209"
             id="path411"
             inkscape:path-effect="#path-effect413"
             inkscape:original-d="m -217.00093,-9.1533252 c -0.12575,2.1280884 -0.25164,4.2560287 -0.37765,6.3838209"
             transform="matrix(0.64588853,0,0,0.57408665,196.26715,-13.791945)" />
          <path
             style="fill:none;stroke:#000000;stroke-width:0.217253;stroke-linecap:butt;stroke-linejoin:miter;stroke-miterlimit:4;stroke-dasharray:none;stroke-opacity:1"
             d="m -213.08699,0.76815734 c 1.57534,0.51505906 3.15053,1.03006666 4.47277,1.53153396 1.32225,0.5014673 2.39151,0.9893596 3.02389,1.3010928 0.63237,0.3117333 0.82782,0.4472599 1.05777,0.6370123 0.22995,0.1897523 0.49439,0.4336921 0.7587,0.6775066"
             id="path415"
             inkscape:path-effect="#path-effect417"
             inkscape:original-d="m -213.08699,0.76815734 c 1.57531,0.51516396 3.1505,1.03016276 4.72555,1.54501916 1.06943,0.48806 2.1387,0.9759491 3.20786,1.4637015 0.19559,0.1356795 0.39105,0.2711995 0.58637,0.4065828 0.26459,0.2441012 0.52903,0.4880429 0.79335,0.7318422"
             inkscape:transform-center-x="-0.16204696"
             inkscape:transform-center-y="-0.36256725"
             transform="matrix(0.64588853,0,0,0.57408665,196.26715,-13.791945)" />
          <ellipse
             id="path1005"
             style="fill:#ff00ff;stroke:#000000;stroke-width:0.304154;stroke-miterlimit:4;stroke-dasharray:none"
             cx="-189.50624"
             cy="17.406843"
             rx="0.00073834311"
             ry="0.00078176649"
             transform="matrix(0.64588853,0,0,0.57408665,196.26715,-13.791945)" />
          <ellipse
             id="path1007"
             style="fill:#ff00ff;stroke:#000000;stroke-width:0.304154;stroke-miterlimit:4;stroke-dasharray:none"
             cx="-189.50624"
             cy="17.406843"
             rx="0.00073834311"
             ry="0.00078176649"
             transform="matrix(0.64588853,0,0,0.57408665,196.26715,-13.791945)" />
        </g>
        <g
           id="g996"
           transform="matrix(0.84677464,0,0,0.70420537,38.85283,26.724533)" />
        <g
           id="g1476"
           transform="matrix(0.84677464,0,0,0.70420537,38.85283,26.724533)" />
        <g
           id="g2078"
           transform="matrix(1.0055593,0,0,0.70420537,-0.08923489,-34.500735)" />
        <text
           xml:space="preserve"
           style="font-style:normal;font-variant:normal;font-weight:normal;font-stretch:normal;font-size:4.58262px;line-height:1.25;font-family:'Hunter River';-inkscape-font-specification:'Hunter River';stroke-width:0.2;stroke-miterlimit:4;stroke-dasharray:none"
           x="-10.521788"
           y="15.239018"
           id="text3672"
           transform="scale(1.1809174,0.84679927)"><tspan
             sodipodi:role="line"
             id="tspan3670"
             style="font-style:normal;font-variant:normal;font-weight:normal;font-stretch:normal;font-family:'Hunter River';-inkscape-font-specification:'Hunter River';stroke-width:0.2;stroke-miterlimit:4;stroke-dasharray:none"
             x="-10.521788"
             y="15.239018" /></text>
      </g>
    </g>
  </g>
</svg>
