<?xml version="1.0" encoding="UTF-8" standalone="no"?>
<!-- Created with Inkscape (http://www.inkscape.org/) -->

<svg
   width="432"
   height="113"
   viewBox="0 0 114.29977 29.897935"
   version="1.1"
   id="svg889"
   xmlns="http://www.w3.org/2000/svg"
   xmlns:svg="http://www.w3.org/2000/svg">
  <defs
     id="defs886">
    <rect
       x="253.38664"
       y="59.530598"
       width="235.06953"
       height="105.32336"
       id="rect3429" />
  </defs>
  <g
     id="layer1">
    <g
       id="layer1-1"
       transform="matrix(1.5510272,0,0,1.5654408,71.103313,135.15865)">
      <g
         id="g996" />
      <g
         id="g1476" />
      <g
         id="g2078"
         transform="matrix(1.187517,0,0,1,-45.9887,-86.942348)">
        <g
           id="g2065">
          <path
             style="fill:none;stroke:#000000;stroke-width:1.6275;stroke-linecap:butt;stroke-linejoin:miter;stroke-miterlimit:4;stroke-dasharray:none;stroke-opacity:1"
             d="M 11.1375,2.8557693 C 10.49492,3.7125425 9.852372,4.5692731 9.3050056,5.3546303 8.7576393,6.1399874 8.305485,6.8539152 7.7700198,7.7463611 7.2345546,8.6388071 6.615817,9.7096991 6.0565552,10.733035 5.4972934,11.756372 4.9975435,12.732074 4.5453755,13.636413 4.0932075,14.540751 3.6886483,15.373667 3.4506702,15.932964 3.212692,16.49226 3.1412993,16.777831 3.0699519,17.063221"
             id="path31173" />
          <path
             style="fill:none;stroke:#000000;stroke-width:1.6275;stroke-linecap:butt;stroke-linejoin:miter;stroke-miterlimit:4;stroke-dasharray:none;stroke-opacity:1"
             d="M 7.2822114,4.7834134 C 8.0201141,4.5453803 8.7578545,4.3073995 9.6265202,4.1051225 10.495186,3.9028455 11.494686,3.7362622 12.172959,3.6529868 c 0.678274,-0.083275 1.035238,-0.083275 1.391945,-0.083275"
             id="path31177" />
          <path
             style="fill:none;stroke:#000000;stroke-width:1.6275;stroke-linecap:butt;stroke-linejoin:miter;stroke-miterlimit:4;stroke-dasharray:none;stroke-opacity:1"
             d="M 0.85673077,17.991346 C 1.594602,17.681916 2.332342,17.372541 3.1890914,17.039365 c 0.8567493,-0.333176 1.832451,-0.69014 2.439348,-0.880509 0.606897,-0.190369 0.8448734,-0.214165 1.0590865,-0.214135 0.2142131,3.1e-5 0.4045942,0.02383 0.5946855,0.04759"
             id="path31181" />
          <path
             style="fill:none;stroke:#000000;stroke-width:1.6275;stroke-linecap:butt;stroke-linejoin:miter;stroke-miterlimit:4;stroke-dasharray:none;stroke-opacity:1"
             d="m 14.707211,5.0689904 c -0.690184,1.0233763 -1.380328,2.046694 -1.987188,2.9986358 -0.606859,0.9519418 -1.130406,1.8324531 -1.725367,2.9152888 -0.594962,1.082836 -1.2612948,2.367907 -1.6182553,3.189006 -0.3569606,0.8211 -0.4045557,1.178064 -0.1784429,1.14224 0.2261128,-0.03582 0.7258624,-0.46418 1.3327102,-1.035331 0.606847,-0.571152 1.320775,-1.28508 2.034717,-2.046618 0.713941,-0.761538 1.427869,-1.570656 2.165616,-2.4154954 0.737746,-0.8448391 1.49927,-1.7253501 1.808627,-1.9156525 0.309358,-0.1903024 0.166572,0.3094471 -0.130911,1.1423746 -0.297483,0.8329274 -0.749637,1.9990093 -1.10661,2.9628463 -0.356973,0.963837 -0.618747,1.725361 -0.725796,2.332283 -0.107049,0.606922 -0.05945,1.059077 0.05965,1.392247 0.119101,0.33317 0.309482,0.547349 0.511788,0.666215 0.202307,0.118866 0.416486,0.142663 0.773388,0.05932 0.356903,-0.08334 0.856652,-0.27372 1.522949,-0.713975 0.666296,-0.440256 1.499212,-1.130386 2.332133,-1.939511 0.832921,-0.809126 1.665837,-1.737232 2.403573,-2.641552 0.737737,-0.90432 1.380272,-1.7848314 1.891924,-2.6772264 0.511652,-0.892395 0.892414,-1.7967039 1.130402,-2.4749188 0.237988,-0.678215 0.333178,-1.1303691 0.309456,-1.5586774 -0.02372,-0.4283083 -0.166508,-0.8328676 -0.309409,-1.237753"
             id="path31185" />
        </g>
        <g
           id="g1904">
          <path
             style="fill:none;stroke:#000000;stroke-width:1.6275;stroke-linecap:butt;stroke-linejoin:miter;stroke-miterlimit:4;stroke-dasharray:none;stroke-opacity:1"
             d="m 34.483413,2.3560096 c -0.785388,1.4755774 -1.570724,2.9510579 -2.308473,4.4265629 -0.737748,1.475505 -1.427879,2.9509562 -2.09423,4.3074525 -0.666352,1.356495 -1.308887,2.59397 -1.522926,3.200758 -0.214039,0.606788 1.42e-4,0.582992 0.523573,-0.01193 0.523431,-0.594925 1.356347,-1.761007 2.082199,-2.736743 0.725852,-0.975737 1.34459,-1.7610581 2.094254,-2.5821192 0.749663,-0.8210612 1.630175,-1.6777751 2.582115,-2.5583184 0.951939,-0.8805432 1.975236,-1.7848521 2.796305,-2.4274196 0.821068,-0.6425675 1.439804,-1.0233286 1.868268,-1.2136906 0.428464,-0.1903619 0.666438,-0.1903619 0.785297,0.012058 0.118859,0.2024201 0.118859,0.6069791 -0.142952,1.3684543 -0.261811,0.7614751 -0.785358,1.8799623 -1.558807,3.617251 -0.773448,1.7372888 -1.796745,4.0932514 -2.474993,5.6758344 -0.678248,1.582584 -1.011415,2.391702 -1.273192,3.165172 -0.261777,0.773471 -0.452158,1.511197 -0.523483,1.963427 -0.07132,0.45223 -0.02373,0.618814 0.02378,0.785085"
             id="path31189" />
          <path
             style="fill:none;stroke:#000000;stroke-width:1.6275;stroke-linecap:butt;stroke-linejoin:miter;stroke-miterlimit:4;stroke-dasharray:none;stroke-opacity:1"
             d="m 43.94326,9.3885752 c -0.05934,-0.202253 -0.225929,-0.3688397 -0.59485,-0.3689955 -0.368922,-1.559e-4 -0.940065,0.1664276 -1.487505,0.4877255 -0.54744,0.3212979 -1.070987,0.7972498 -1.380395,1.2019138 -0.309407,0.404664 -0.404598,0.737831 -0.285448,0.90433 0.119151,0.166499 0.452317,0.166499 0.892525,0.05938 0.440208,-0.107121 0.987552,-0.321299 1.47536,-0.606863 0.487808,-0.285564 0.916166,-0.642529 1.154113,-0.939894 0.237947,-0.2973652 0.285543,-0.5353419 0.2262,-0.7375948 z"
             id="path31193" />
          <path
             style="fill:none;stroke:#000000;stroke-width:1.6275;stroke-linecap:butt;stroke-linejoin:miter;stroke-miterlimit:4;stroke-dasharray:none;stroke-opacity:1"
             d="m 43.94326,9.3885752 c -0.452208,0.7140118 -0.904371,1.4279528 -1.070862,1.9159418 -0.166491,0.487988 -0.0475,0.749762 0.214293,0.82097 0.261796,0.07121 0.666355,-0.04778 1.154171,-0.285761 0.487817,-0.237981 1.058959,-0.594946 1.582519,-0.928121 0.523559,-0.333175 0.99951,-0.642543 1.201734,-0.690037 0.202225,-0.04749 0.130831,0.166685 -0.08334,0.511704 -0.214176,0.345019 -0.571138,0.820971 -0.570997,1.047024 1.41e-4,0.226053 0.357106,0.202256 1.154305,-0.03575 0.7972,-0.238004 2.034675,-0.690158 2.772445,-0.940031 0.73777,-0.249874 0.975748,-0.29747 1.213523,-0.345025"
             id="path31197" />
          <path
             style="fill:none;stroke:#000000;stroke-width:1.6275;stroke-linecap:butt;stroke-linejoin:miter;stroke-miterlimit:4;stroke-dasharray:none;stroke-opacity:1"
             d="m 59.614182,1.4992788 c -1.142295,1.0471038 -2.284604,2.0942198 -3.486434,3.3555493 -1.201831,1.2613295 -2.463103,2.7367806 -3.284139,3.6887058 -0.821035,0.9519251 -1.201798,1.3802835 -1.237381,1.8206961 -0.03558,0.440412 0.273787,0.892565 0.868707,0.928079 0.594921,0.03551 1.475431,-0.345248 2.272668,-0.702222 0.797238,-0.356974 1.511167,-0.6901414 1.903808,-0.8805197 0.392641,-0.1903783 0.464034,-0.2379734 0.463981,-0.095062 -5.2e-5,0.1429113 -0.07144,0.4760778 -0.309435,1.0590948 -0.23799,0.583017 -0.642549,1.415934 -0.975726,2.117987 -0.333176,0.702053 -0.594949,1.273195 -0.963815,1.891917 -0.368866,0.618723 -0.844817,1.285056 -1.296936,1.760975 -0.45212,0.475919 -0.880477,0.76149 -1.225439,0.797323 -0.344962,0.03583 -0.606735,-0.178344 -0.642601,-0.547264 -0.03587,-0.368919 0.154514,-0.892466 0.499616,-1.416101 0.345101,-0.523634 0.84485,-1.04718 1.404134,-1.546963 0.559284,-0.499782 1.17802,-0.975733 1.7968,-1.392213 0.61878,-0.41648 1.237516,-0.773443 2.011009,-1.082822 0.773493,-0.309378 1.701599,-0.571151 2.463164,-0.749631 0.761565,-0.178479 1.356504,-0.273669 1.95124,-0.368827"
             id="path31201" />
          <path
             style="fill:none;stroke:#000000;stroke-width:0.885627;stroke-linecap:butt;stroke-linejoin:miter;stroke-miterlimit:4;stroke-dasharray:none;stroke-opacity:1"
             d="M 50.261538,5.5687499 C 49.737969,6.1399157 49.214411,6.7110698 48.690865,7.2822114"
             id="path31318" />
        </g>
      </g>
    </g>
  </g>
</svg>
