<?xml version="1.0" encoding="UTF-8" standalone="no"?>
<!-- Created with Inkscape (http://www.inkscape.org/) -->

<svg
   width="181.41733"
   height="162.51968"
   viewBox="0 0 48 43"
   version="1.1"
   id="svg5"
   inkscape:version="1.1 (c68e22c387, 2021-05-23)"
   sodipodi:docname="logo-hand_tick-line.svg"
   xmlns:inkscape="http://www.inkscape.org/namespaces/inkscape"
   xmlns:sodipodi="http://sodipodi.sourceforge.net/DTD/sodipodi-0.dtd"
   xmlns="http://www.w3.org/2000/svg"
   xmlns:svg="http://www.w3.org/2000/svg">
  <sodipodi:namedview
     id="namedview7"
     pagecolor="#ffffff"
     bordercolor="#cccccc"
     borderopacity="1"
     inkscape:pageshadow="0"
     inkscape:pageopacity="1"
     inkscape:pagecheckerboard="0"
     inkscape:document-units="mm"
     showgrid="false"
     units="px"
     inkscape:zoom="1.4"
     inkscape:cx="246.78571"
     inkscape:cy="219.64286"
     inkscape:window-width="1920"
     inkscape:window-height="1017"
     inkscape:window-x="1358"
     inkscape:window-y="-8"
     inkscape:window-maximized="1"
     inkscape:current-layer="layer1" />
  <defs
     id="defs2">
    <inkscape:path-effect
       effect="bspline"
       id="path-effect9044"
       is_visible="true"
       lpeversion="1"
       weight="33.333333"
       steps="2"
       helper_size="0"
       apply_no_weight="true"
       apply_with_weight="true"
       only_selected="false" />
    <inkscape:path-effect
       effect="bspline"
       id="path-effect9040"
       is_visible="true"
       lpeversion="1"
       weight="33.333333"
       steps="2"
       helper_size="0"
       apply_no_weight="true"
       apply_with_weight="true"
       only_selected="false" />
    <inkscape:path-effect
       effect="bspline"
       id="path-effect9036"
       is_visible="true"
       lpeversion="1"
       weight="33.333333"
       steps="2"
       helper_size="0"
       apply_no_weight="true"
       apply_with_weight="true"
       only_selected="false" />
    <inkscape:path-effect
       effect="bspline"
       id="path-effect9032"
       is_visible="true"
       lpeversion="1"
       weight="33.333333"
       steps="2"
       helper_size="0"
       apply_no_weight="true"
       apply_with_weight="true"
       only_selected="false" />
    <inkscape:path-effect
       effect="bspline"
       id="path-effect9028"
       is_visible="true"
       lpeversion="1"
       weight="33.333333"
       steps="2"
       helper_size="0"
       apply_no_weight="true"
       apply_with_weight="true"
       only_selected="false" />
    <inkscape:path-effect
       effect="bspline"
       id="path-effect9024"
       is_visible="true"
       lpeversion="1"
       weight="33.333333"
       steps="2"
       helper_size="0"
       apply_no_weight="true"
       apply_with_weight="true"
       only_selected="false" />
    <inkscape:path-effect
       effect="bspline"
       id="path-effect9020"
       is_visible="true"
       lpeversion="1"
       weight="33.333333"
       steps="2"
       helper_size="0"
       apply_no_weight="true"
       apply_with_weight="true"
       only_selected="false" />
    <inkscape:path-effect
       effect="bspline"
       id="path-effect5266"
       is_visible="true"
       lpeversion="1"
       weight="33.333333"
       steps="2"
       helper_size="0"
       apply_no_weight="true"
       apply_with_weight="true"
       only_selected="false" />
    <inkscape:path-effect
       effect="bspline"
       id="path-effect4913"
       is_visible="true"
       lpeversion="1"
       weight="33.333333"
       steps="2"
       helper_size="0"
       apply_no_weight="true"
       apply_with_weight="true"
       only_selected="false" />
    <inkscape:path-effect
       effect="bspline"
       id="path-effect4909"
       is_visible="true"
       lpeversion="1"
       weight="33.333333"
       steps="2"
       helper_size="0"
       apply_no_weight="true"
       apply_with_weight="true"
       only_selected="false" />
    <inkscape:path-effect
       effect="bspline"
       id="path-effect4404"
       is_visible="true"
       lpeversion="1"
       weight="33.333333"
       steps="2"
       helper_size="0"
       apply_no_weight="true"
       apply_with_weight="true"
       only_selected="false" />
    <inkscape:path-effect
       effect="bspline"
       id="path-effect3741"
       is_visible="true"
       lpeversion="1"
       weight="33.333333"
       steps="2"
       helper_size="0"
       apply_no_weight="true"
       apply_with_weight="true"
       only_selected="false" />
    <inkscape:path-effect
       effect="bspline"
       id="path-effect2355"
       is_visible="true"
       lpeversion="1"
       weight="33.333333"
       steps="2"
       helper_size="0"
       apply_no_weight="true"
       apply_with_weight="true"
       only_selected="false" />
    <inkscape:path-effect
       effect="bspline"
       id="path-effect417"
       is_visible="true"
       lpeversion="1"
       weight="33.333333"
       steps="2"
       helper_size="0"
       apply_no_weight="true"
       apply_with_weight="true"
       only_selected="false" />
    <inkscape:path-effect
       effect="bspline"
       id="path-effect413"
       is_visible="true"
       lpeversion="1"
       weight="33.333333"
       steps="2"
       helper_size="0"
       apply_no_weight="true"
       apply_with_weight="true"
       only_selected="false" />
    <inkscape:path-effect
       effect="bspline"
       id="path-effect409"
       is_visible="true"
       lpeversion="1"
       weight="33.333333"
       steps="2"
       helper_size="0"
       apply_no_weight="true"
       apply_with_weight="true"
       only_selected="false" />
    <inkscape:path-effect
       effect="bspline"
       id="path-effect405"
       is_visible="true"
       lpeversion="1"
       weight="33.333333"
       steps="2"
       helper_size="0"
       apply_no_weight="true"
       apply_with_weight="true"
       only_selected="false" />
    <inkscape:path-effect
       effect="bspline"
       id="path-effect401"
       is_visible="true"
       lpeversion="1"
       weight="33.333333"
       steps="2"
       helper_size="0"
       apply_no_weight="true"
       apply_with_weight="true"
       only_selected="false" />
    <inkscape:path-effect
       effect="bspline"
       id="path-effect397"
       is_visible="true"
       lpeversion="1"
       weight="33.333333"
       steps="2"
       helper_size="0"
       apply_no_weight="true"
       apply_with_weight="true"
       only_selected="false" />
    <inkscape:path-effect
       effect="bspline"
       id="path-effect389"
       is_visible="true"
       lpeversion="1"
       weight="33.333333"
       steps="2"
       helper_size="0"
       apply_no_weight="true"
       apply_with_weight="true"
       only_selected="false" />
    <inkscape:path-effect
       effect="bspline"
       id="path-effect385"
       is_visible="true"
       lpeversion="1"
       weight="33.333333"
       steps="2"
       helper_size="0"
       apply_no_weight="true"
       apply_with_weight="true"
       only_selected="false" />
    <inkscape:path-effect
       effect="bspline"
       id="path-effect381"
       is_visible="true"
       lpeversion="1"
       weight="33.333333"
       steps="2"
       helper_size="0"
       apply_no_weight="true"
       apply_with_weight="true"
       only_selected="false" />
    <inkscape:path-effect
       effect="bspline"
       id="path-effect377"
       is_visible="true"
       lpeversion="1"
       weight="33.333333"
       steps="2"
       helper_size="0"
       apply_no_weight="true"
       apply_with_weight="true"
       only_selected="false" />
    <inkscape:path-effect
       effect="bspline"
       id="path-effect373"
       is_visible="true"
       lpeversion="1"
       weight="33.333333"
       steps="2"
       helper_size="0"
       apply_no_weight="true"
       apply_with_weight="true"
       only_selected="false" />
    <inkscape:path-effect
       effect="bspline"
       id="path-effect369"
       is_visible="true"
       lpeversion="1"
       weight="33.333333"
       steps="2"
       helper_size="0"
       apply_no_weight="true"
       apply_with_weight="true"
       only_selected="false" />
    <inkscape:path-effect
       effect="bspline"
       id="path-effect365"
       is_visible="true"
       lpeversion="1"
       weight="33.333333"
       steps="2"
       helper_size="0"
       apply_no_weight="true"
       apply_with_weight="true"
       only_selected="false" />
    <inkscape:path-effect
       effect="bspline"
       id="path-effect120"
       is_visible="true"
       lpeversion="1"
       weight="33.333333"
       steps="2"
       helper_size="0"
       apply_no_weight="true"
       apply_with_weight="true"
       only_selected="false" />
    <inkscape:path-effect
       effect="bspline"
       id="path-effect116"
       is_visible="true"
       lpeversion="1"
       weight="33.333333"
       steps="2"
       helper_size="0"
       apply_no_weight="true"
       apply_with_weight="true"
       only_selected="false" />
    <inkscape:path-effect
       effect="bspline"
       id="path-effect108"
       is_visible="true"
       lpeversion="1"
       weight="33.333333"
       steps="2"
       helper_size="0"
       apply_no_weight="true"
       apply_with_weight="true"
       only_selected="false" />
    <inkscape:path-effect
       effect="bspline"
       id="path-effect104"
       is_visible="true"
       lpeversion="1"
       weight="33.333333"
       steps="2"
       helper_size="0"
       apply_no_weight="true"
       apply_with_weight="true"
       only_selected="false" />
    <inkscape:path-effect
       effect="bspline"
       id="path-effect100"
       is_visible="true"
       lpeversion="1"
       weight="33.333333"
       steps="2"
       helper_size="0"
       apply_no_weight="true"
       apply_with_weight="true"
       only_selected="false" />
    <inkscape:path-effect
       effect="bspline"
       id="path-effect96"
       is_visible="true"
       lpeversion="1"
       weight="33.333333"
       steps="2"
       helper_size="0"
       apply_no_weight="true"
       apply_with_weight="true"
       only_selected="false" />
    <inkscape:path-effect
       effect="bspline"
       id="path-effect92"
       is_visible="true"
       lpeversion="1"
       weight="33.333333"
       steps="2"
       helper_size="0"
       apply_no_weight="true"
       apply_with_weight="true"
       only_selected="false" />
    <inkscape:path-effect
       effect="bspline"
       id="path-effect88"
       is_visible="true"
       lpeversion="1"
       weight="33.333333"
       steps="2"
       helper_size="0"
       apply_no_weight="true"
       apply_with_weight="true"
       only_selected="false" />
    <inkscape:path-effect
       effect="bspline"
       id="path-effect1745"
       is_visible="true"
       lpeversion="1"
       weight="33.333333"
       steps="2"
       helper_size="0"
       apply_no_weight="true"
       apply_with_weight="true"
       only_selected="false" />
    <inkscape:path-effect
       effect="bspline"
       id="path-effect1741"
       is_visible="true"
       lpeversion="1"
       weight="33.333333"
       steps="2"
       helper_size="0"
       apply_no_weight="true"
       apply_with_weight="true"
       only_selected="false" />
    <pattern
       id="EMFhbasepattern"
       patternUnits="userSpaceOnUse"
       width="6"
       height="6"
       x="0"
       y="0" />
  </defs>
  <g
     inkscape:label="Layer 1"
     inkscape:groupmode="layer"
     id="layer1">
    <g
       id="g3315"
       transform="matrix(1.1173778,0,0,1.0553128,258.99821,23.711687)">
      <path
         style="fill:#ff00ff;stroke-width:1.07935"
         d=""
         id="path425"
         transform="matrix(0.2367895,0,0,0.25071555,-230.86279,-22.127191)" />
      <path
         style="fill:#ff00ff;stroke-width:0.269836"
         d=""
         id="path503"
         transform="matrix(0.2367895,0,0,0.25071555,-230.86279,-22.127191)" />
      <path
         style="fill:#ff00ff;stroke-width:0.269836"
         d=""
         id="path542"
         transform="matrix(0.2367895,0,0,0.25071555,-230.86279,-22.127191)" />
      <g
         id="g970"
         transform="matrix(0.48125158,0,0,0.60289881,-246.76018,-32.971441)">
        <g
           id="g1173"
           transform="matrix(1,0,0,1.0022552,0,-0.04191947)">
          <g
             id="g7481"
             transform="matrix(0.99923889,0,0,0.94252954,-78.060313,-75.743555)" />
        </g>
        <g
           id="g1176" />
      </g>
      <g
         id="g22291">
        <path
           style="fill:none;stroke:#000000;stroke-width:0.527899;stroke-linecap:butt;stroke-linejoin:miter;stroke-miterlimit:4;stroke-dasharray:none;stroke-opacity:1"
           d="m 156.37305,130.41888 c 0,0 -1.03125,-1.25535 -1.2116,-2.01933 -0.20164,-0.85415 -0.16479,-1.8278 0.20193,-2.62514 0.39777,-0.86483 1.60111,-1.1642 2.01934,-2.01933 0.23843,-0.4875 0.36209,-1.09696 0.20193,-1.61547 -1.59035,-5.14865 -8.53374,-7.183 -10.70247,-12.116 -1.03511,-2.35446 -2.26519,-4.34811 -1.32032,-6.89194 0,0 0.0873,-0.30391 0.20858,-0.42219 0.15641,-0.15245 0.52868,-0.31513 0.52868,-0.31513"
           id="path124"
           sodipodi:nodetypes="cssaasssc"
           transform="matrix(0.48088529,0,0,0.56953144,-284.32683,-78.765399)" />
        <path
           style="fill:#89014b;fill-opacity:1;stroke:#000000;stroke-width:0.26033px;stroke-linecap:butt;stroke-linejoin:miter;stroke-opacity:1"
           d="m 147.44448,104.96886 c 0.30729,0.43455 0.74459,1.02963 1.18212,1.47013 0.43753,0.4405 0.87498,0.72624 1.33548,0.89284 0.4605,0.16661 0.94401,0.21423 1.28925,0.13088 0.34524,-0.0834 0.55247,-0.29767 0.62158,-0.59519 0.0691,-0.29751 3e-5,-0.67852 -0.71369,-1.79775 -0.71371,-1.11922 -2.07216,-2.97658 -2.92405,-3.953 -0.85189,-0.97643 -1.19726,-1.07168 -1.43919,-1.02407 -0.24194,0.0476 -0.38009,0.23812 -0.46323,0.64473 -0.0832,0.40662 -0.11132,1.02924 -0.0271,1.6068 0.0843,0.57756 0.28075,1.11003 0.46759,1.51316 0.18685,0.40313 0.36391,0.67691 0.67119,1.11147 z"
           id="path1739"
           inkscape:path-effect="#path-effect1741"
           inkscape:original-d="m 147.31391,104.80756 c 0.43797,0.59577 0.8752,1.1909 1.31243,1.78598 0.43774,0.28602 0.8752,0.57175 1.31242,0.85724 0.4838,0.0479 0.96732,0.0954 1.45058,0.14288 0.20749,-0.21406 0.41472,-0.42837 0.62169,-0.64293 -0.0688,-0.38076 -0.13789,-0.76177 -0.20722,-1.14304 -1.35826,-1.85717 -2.71671,-3.71453 -4.07545,-5.57218 -0.34513,-0.095 -0.6905,-0.19024 -1.03613,-0.285755 -0.1379,0.190765 -0.27604,0.381275 -0.41445,0.571515 -0.0277,0.6228 -0.0558,1.24542 -0.0845,1.86747 0.19698,0.53294 0.39346,1.06541 0.58945,1.59745 0.17755,0.27424 0.35461,0.54802 0.53118,0.82137 z"
           sodipodi:nodetypes="cccccccccc"
           transform="matrix(0.48088529,0,0,0.56953144,-284.32683,-78.765399)" />
        <path
           style="fill:none;stroke:#000000;stroke-width:0.527899;stroke-linecap:butt;stroke-linejoin:miter;stroke-miterlimit:4;stroke-dasharray:none;stroke-opacity:1"
           d="m 184.83966,149.99927 c -2.09401,-2.80787 -4.1882,-5.61599 -5.9969,-8.37658 -1.80869,-2.7606 -3.33174,-5.47352 -4.91432,-8.28172 -1.58259,-2.8082 -3.22462,-5.71151 -4.45023,-7.79388 -1.22561,-2.08236 -2.03473,-3.34364 -2.83196,-4.48596 -0.79723,-1.14233 -1.58255,-2.16563 -2.57015,-3.15329 -0.98759,-0.98766 -2.17747,-1.93956 -3.21269,-2.72492 -1.03522,-0.78535 -1.91574,-1.4041 -2.76059,-2.05853 -0.84485,-0.65444 -1.65397,-1.34457 -2.58305,-2.17621 -0.92909,-0.83163 -1.83071,-1.66803 -2.64996,-2.43723 -0.81925,-0.7692 -1.04501,-0.98805 -1.27111,-1.20722"
           id="path90"
           inkscape:path-effect="#path-effect92"
           inkscape:original-d="m 184.83966,149.99927 c -2.09397,-2.8079 -4.18816,-5.61602 -6.28269,-8.42451 -1.52281,-2.71272 -3.04586,-5.42564 -4.56923,-8.13894 -1.6418,-2.9031 -3.28384,-5.80641 -4.9262,-8.7101 -0.80888,-1.26103 -1.61799,-2.52231 -2.42741,-3.7839 -0.78507,-1.02305 -1.57039,-2.04635 -2.35601,-3.06995 -1.18964,-0.95166 -2.37952,-1.90356 -3.56971,-2.85577 -0.88026,-0.61848 -1.76078,-1.23722 -2.64159,-1.85625 -0.80887,-0.68988 -1.61799,-1.38001 -2.4274,-2.07043 -1.04873,-0.97288 -1.95116,-1.80841 -3.14698,-2.91933 -0.44411,-0.42604 -0.66875,-0.64605 -0.89374,-0.86636"
           sodipodi:nodetypes="ccccccccccc"
           transform="matrix(0.48088529,0,0,0.56953144,-284.32683,-78.765399)" />
        <path
           style="fill:none;stroke:#000000;stroke-width:0.527899;stroke-linecap:butt;stroke-linejoin:miter;stroke-miterlimit:4;stroke-dasharray:none;stroke-opacity:1"
           d="m 154.21154,121.01322 c -3.99777,-1.40398 -7.99584,-2.80806 -10.82783,-3.71241 -2.83199,-0.90435 -4.49782,-1.30891 -6.12801,-1.85624 -1.63018,-0.54733 -3.22462,-1.23746 -5.42597,-2.35597 -2.20135,-1.11851 -5.00947,-2.66535 -7.79387,-4.10516 -2.7844,-1.43981 -5.54492,-2.77247 -7.27029,-3.53405 -1.72537,-0.76157 -2.4155,-0.95195 -3.04619,-1.0234 -0.6307,-0.0714 -1.20184,-0.0238 -1.58272,0.0833 -0.38087,0.10709 -0.57126,0.27368 -0.64264,0.51182 -0.0714,0.23814 -0.0238,0.54749 0.13099,0.88067 0.15478,0.33318 0.41655,0.69016 1.01157,1.18561 0.59502,0.49546 1.52313,1.12945 2.45092,1.76323"
           id="path98"
           inkscape:path-effect="#path-effect100"
           inkscape:original-d="m 154.21154,121.01322 c -3.99782,-1.40382 -7.99589,-2.80791 -11.99424,-4.21226 -1.66563,-0.40431 -3.33146,-0.80887 -4.99759,-1.2137 -1.59424,-0.6899 -3.18868,-1.38003 -4.78342,-2.07044 -2.80796,-1.54664 -5.61608,-3.09348 -8.42451,-4.64062 -2.76037,-1.33246 -5.52089,-2.66512 -8.28173,-3.99808 -0.6899,-0.19012 -1.38003,-0.3805 -2.07044,-0.57115 -0.5709,0.0479 -1.14204,0.0955 -1.71346,0.14279 -0.19012,0.16685 -0.3805,0.33344 -0.57115,0.49976 0.0479,0.30964 0.0954,0.61901 0.14279,0.92812 0.26204,0.35724 0.52382,0.71421 0.78533,1.07092 0.92843,0.63431 1.85654,1.2683 2.78438,1.90201"
           sodipodi:nodetypes="cccccccccccc"
           transform="matrix(0.48088529,0,0,0.56953144,-284.32683,-78.765399)" />
        <path
           style="fill:none;stroke:#000000;stroke-width:0.527899;stroke-linecap:butt;stroke-linejoin:miter;stroke-miterlimit:4;stroke-dasharray:none;stroke-opacity:1"
           d="m 121.65577,116.94375 c 0.19034,-0.73756 0.38072,-1.4753 0.48783,-2.17732 0.10711,-0.70201 0.13091,-1.36834 -0.0118,-2.09416 -0.14273,-0.72582 -0.4521,-1.51114 -0.85661,-2.18941 -0.40452,-0.67827 -0.90427,-1.24941 -1.4443,-1.80695 -0.54002,-0.55754 -1.1198,-1.10093 -1.63719,-1.33795 -0.51738,-0.23702 -0.97129,-0.16645 -1.42542,-0.0958"
           id="path102"
           inkscape:path-effect="#path-effect104"
           inkscape:original-d="m 121.65577,116.94375 c 0.19065,-0.73748 0.38103,-1.47522 0.57115,-2.21322 0.0241,-0.6661 0.0479,-1.33243 0.0714,-1.99904 -0.30912,-0.78509 -0.61849,-1.57041 -0.92813,-2.35601 -0.49951,-0.5709 -0.99926,-1.14205 -1.49928,-1.71346 -0.58004,-0.54366 -1.15982,-1.08705 -1.74089,-1.63162 -0.45364,0.071 -0.90754,0.14161 -1.36175,0.21171"
           sodipodi:nodetypes="ccccccc"
           transform="matrix(0.48088529,0,0,0.56953144,-284.32683,-78.765399)" />
        <path
           style="fill:#89014b;fill-opacity:1;stroke:#000000;stroke-width:0.264583px;stroke-linecap:butt;stroke-linejoin:miter;stroke-opacity:1"
           d="m 117.02411,112.50241 c 0.11605,-0.0684 0.34808,-0.20529 0.52055,-0.41938 0.17247,-0.21408 0.28551,-0.5056 0.33611,-0.83277 0.0506,-0.32716 0.0387,-0.69007 -0.0178,-1.05893 -0.0565,-0.36885 -0.15762,-0.74366 -0.28551,-1.11551 -0.12789,-0.37184 -0.28258,-0.74071 -0.47592,-1.13041 -0.19334,-0.3897 -0.42536,-0.80021 -0.61871,-1.12149 -0.19335,-0.32128 -0.34803,-0.55331 -0.51457,-0.73481 -0.16655,-0.18151 -0.34503,-0.31239 -0.50869,-0.3631 -0.16366,-0.0507 -0.3124,-0.021 -0.41069,0.0564 -0.0983,0.0774 -0.14589,0.20237 -0.16966,0.372 -0.0238,0.16963 -0.0238,0.3838 0.0119,0.70808 0.0357,0.32427 0.10712,0.75858 0.15172,1.06794 0.0446,0.30937 0.0624,0.49381 0.12789,0.86567 0.0655,0.37185 0.1785,0.93109 0.31834,1.43384 0.13985,0.50274 0.30643,0.94895 0.43734,1.27024 0.13091,0.32128 0.22609,0.5176 0.38384,0.67519 0.15775,0.15759 0.37787,0.27657 0.48778,0.33598 0.10991,0.0594 0.10995,0.0594 0.22601,-0.009 z"
           id="path106"
           inkscape:path-effect="#path-effect108"
           inkscape:original-d="m 116.90805,112.57085 c 0.2323,-0.13657 0.46433,-0.27341 0.69609,-0.41052 0.11331,-0.29126 0.22635,-0.58278 0.33913,-0.87458 -0.0117,-0.36266 -0.0235,-0.72557 -0.0357,-1.08876 -0.10088,-0.37456 -0.20202,-0.74937 -0.30343,-1.12446 -0.15442,-0.36861 -0.30911,-0.73747 -0.46406,-1.10661 -0.23177,-0.41026 -0.4638,-0.82077 -0.69609,-1.23155 -0.15443,-0.23177 -0.30911,-0.4638 -0.46406,-0.69609 -0.17823,-0.13063 -0.35671,-0.26152 -0.53546,-0.39267 -0.14848,0.03 -0.29721,0.0598 -0.44621,0.0892 -0.0473,0.12521 -0.0949,0.25015 -0.14279,0.37482 2.6e-4,0.21446 2.6e-4,0.42863 0,0.64255 0.0717,0.43459 0.14305,0.8689 0.21418,1.30295 0.0181,0.1847 0.036,0.36913 0.0535,0.5533 0.11331,0.55953 0.22635,1.11877 0.33913,1.67777 0.16685,0.44648 0.33343,0.89269 0.49976,1.33864 0.0955,0.1966 0.19065,0.39293 0.28557,0.589 0.22041,0.11926 0.44053,0.23824 0.6604,0.35697 z"
           transform="matrix(0.48088529,0,0,0.56953144,-284.32683,-78.765399)" />
        <path
           style="fill:none;stroke:#000000;stroke-width:0.264583px;stroke-linecap:butt;stroke-linejoin:miter;stroke-opacity:1"
           d="m 122.82597,117.32329 c -0.2859,-0.555 -0.57198,-1.11032 -0.85821,-1.66595"
           id="path114"
           inkscape:path-effect="#path-effect116"
           inkscape:original-d="m 122.82597,117.32329 c -0.2858,-0.55505 -0.57187,-1.11037 -0.85821,-1.66595"
           transform="matrix(0.48088529,0,0,0.56953144,-284.32683,-78.765399)" />
        <path
           style="fill:none;stroke:#000000;stroke-width:0.264583px;stroke-linecap:butt;stroke-linejoin:miter;stroke-opacity:1"
           d="m 113.3842,112.65586 c 0,0 0,0 0,0 0,0 0,0 0,0 0,0 0,0 0,0 z"
           id="path118"
           inkscape:path-effect="#path-effect120"
           inkscape:original-d="m 113.3842,112.65586 c 2.7e-4,2.6e-4 2.7e-4,2.6e-4 0,0 v 0 c 2.7e-4,2.6e-4 0,0 0,0 z"
           sodipodi:nodetypes="ccccc"
           transform="matrix(0.48088529,0,0,0.56953144,-284.32683,-78.765399)" />
        <path
           style="fill:none;stroke:#000000;stroke-width:0.527899;stroke-linecap:butt;stroke-linejoin:miter;stroke-miterlimit:4;stroke-dasharray:none;stroke-opacity:1"
           d="m 118.44303,121.15601 c -0.38227,-1.69023 -0.72901,-3.22342 -0.95842,-4.32017 -0.2294,-1.09675 -0.26333,-1.38398 -0.30067,-1.70013 0,0 -0.1319,-0.74679 -0.1319,-0.74679 -0.009,-0.62884 -0.0186,-1.25773 -0.0279,-1.88651"
           id="path363"
           inkscape:path-effect="#path-effect365"
           inkscape:original-d="m 118.44303,121.15601 c -0.38189,-1.69032 -0.72864,-3.2235 -1.14706,-5.07185 -0.0403,-0.34512 -0.11203,-0.94845 -0.11203,-0.94845 l -0.1319,-0.74679 c 0,0 -0.0181,-1.25774 -0.0279,-1.88651"
           sodipodi:nodetypes="cccsc"
           transform="matrix(0.48088529,0,0,0.56953144,-284.32683,-78.765399)" />
        <path
           style="fill:none;stroke:#000000;stroke-width:0.527899;stroke-linecap:butt;stroke-linejoin:miter;stroke-miterlimit:4;stroke-dasharray:none;stroke-opacity:1"
           d="m 128.11675,113.90304 c 0.20358,0.11612 0.40681,0.23204 0.58537,0.43572 0.17856,0.20368 0.33214,0.49404 0.41489,0.93685 0.0828,0.44282 0.0947,1.03775 0.005,1.62671 -0.0893,0.58896 -0.27965,1.172 -0.53548,1.85024 -0.25584,0.67824 -0.5771,1.45166 -0.93408,2.20723 -0.35697,0.75558 -0.74963,1.49331 -1.08875,2.0942 -0.33913,0.60089 -0.6247,1.06495 -0.63049,1.44582 -0.006,0.38088 0.26787,0.67835 0.5413,0.97555"
           id="path367"
           inkscape:path-effect="#path-effect369"
           inkscape:original-d="m 128.11675,113.90304 c 0.20351,0.11624 0.40674,0.23216 0.60967,0.34776 0.15446,0.29153 0.30804,0.58189 0.46144,0.87239 0.0122,0.59523 0.024,1.19017 0.0357,1.78486 -0.19012,0.58333 -0.3805,1.16637 -0.57115,1.74916 -0.32102,0.77372 -0.64228,1.54714 -0.96382,2.32031 -0.39241,0.73802 -0.78507,1.47575 -1.17801,2.21322 -0.28531,0.46434 -0.57088,0.92839 -0.85673,1.39219 0.27395,0.29775 0.54762,0.59522 0.82104,0.89243"
           sodipodi:nodetypes="ccccccccc"
           transform="matrix(0.48088529,0,0,0.56953144,-284.32683,-78.765399)" />
        <path
           style="fill:#89014b;fill-opacity:1;stroke:#000000;stroke-width:0.264583px;stroke-linecap:butt;stroke-linejoin:miter;stroke-opacity:1"
           d="m 123.37536,118.84183 c 0.13697,0.12483 0.38684,0.18433 0.67234,0.15451 0.2855,-0.0298 0.60677,-0.1488 0.94583,-0.38081 0.33905,-0.23201 0.69601,-0.57707 1.01727,-0.95187 0.32126,-0.37479 0.60683,-0.77935 0.86861,-1.20771 0.26177,-0.42836 0.49968,-0.88038 0.74959,-1.42779 0.24991,-0.5474 0.51148,-1.18943 0.60089,-1.6715 0.0894,-0.48208 0.006,-0.80334 -0.12465,-0.98195 -0.13077,-0.17861 -0.30925,-0.21431 -0.5236,-0.0894 -0.21435,0.12491 -0.46423,0.41049 -0.74386,0.73177 -0.27963,0.32128 -0.589,0.67824 -0.99953,1.19586 -0.41053,0.51763 -0.92218,1.19586 -1.33271,1.79084 -0.41052,0.59497 -0.71989,1.10662 -0.92218,1.48147 -0.20229,0.37484 -0.29748,0.61283 -0.33313,0.8271 -0.0357,0.21426 -0.0118,0.40464 0.12513,0.52947 z"
           id="path371"
           inkscape:path-effect="#path-effect373"
           inkscape:original-d="m 123.26214,118.90709 c 0.25014,0.0598 0.50002,0.11925 0.74964,0.17849 0.32154,-0.11873 0.64281,-0.23772 0.96382,-0.35698 0.35724,-0.34481 0.71421,-0.68987 1.07091,-1.03521 0.28585,-0.40431 0.57142,-0.80887 0.85673,-1.2137 0.23851,-0.4518 0.47642,-0.90382 0.71394,-1.3565 0.26231,-0.6422 0.52388,-1.28422 0.78534,-1.92764 -0.0829,-0.32105 -0.16615,-0.64232 -0.24988,-0.96382 -0.17822,-0.0354 -0.3567,-0.0711 -0.53546,-0.10709 -0.24961,0.28584 -0.49949,0.57141 -0.74963,0.85673 -0.30912,0.35724 -0.61849,0.7142 -0.92813,1.07091 -0.5114,0.67852 -1.02305,1.35676 -1.53498,2.03474 -0.30911,0.51193 -0.61848,1.02358 -0.92812,1.53497 -0.0949,0.23825 -0.19012,0.47623 -0.28558,0.71394 0.0241,0.19066 0.0479,0.38104 0.0714,0.57116 z"
           sodipodi:nodetypes="ccccccccccccccc"
           transform="matrix(0.48088529,0,0,0.56953144,-284.32683,-78.765399)" />
        <path
           style="fill:none;stroke:#000000;stroke-width:0.527899;stroke-linecap:butt;stroke-linejoin:miter;stroke-miterlimit:4;stroke-dasharray:none;stroke-opacity:1"
           d="m 125.65384,130.97271 c -1.18959,-0.79703 -2.3795,-1.59426 -3.34336,-2.41527 -0.96386,-0.821 -1.70158,-1.66581 -2.1122,-2.32025 -0.41061,-0.65445 -0.4939,-1.1185 -0.46421,-1.54695 0.0297,-0.42845 0.17249,-0.8211 0.72391,-1.69641 0.55142,-0.8753 1.43284,-2.12194 2.06841,-3.00271 0.63557,-0.88077 0.74223,-1.01498 0.7956,-1.08214 0.0534,-0.0671 0.0534,-0.0671 0.0534,-0.0671"
           id="path379"
           inkscape:path-effect="#path-effect381"
           inkscape:original-d="m 125.65384,130.97271 c -1.18963,-0.79697 -2.37954,-1.5942 -3.56971,-2.3917 -0.73749,-0.84459 -1.47521,-1.6894 -2.21322,-2.5345 -0.083,-0.46381 -0.16632,-0.92786 -0.24988,-1.39219 0.14306,-0.39241 0.28584,-0.78507 0.42837,-1.178 0.96054,-1.35741 1.85676,-2.59359 2.88001,-4.07337 0.21292,-0.3082 0.32965,-0.43441 0.44595,-0.56112 4.9e-4,4.4e-4 4.8e-4,4.4e-4 -1e-5,0"
           sodipodi:nodetypes="cccccccc"
           transform="matrix(0.48088529,0,0,0.56953144,-284.32683,-78.765399)" />
        <path
           style="fill:#89014b;fill-opacity:1;stroke:#000000;stroke-width:0.264583px;stroke-linecap:butt;stroke-linejoin:miter;stroke-opacity:1"
           d="m 128.80122,128.46199 c 0.14881,-0.0476 0.4463,-0.14282 0.67228,-0.31529 0.22597,-0.17248 0.38066,-0.42235 0.5175,-0.79117 0.13684,-0.36882 0.25582,-0.85667 0.32129,-1.41589 0.0655,-0.55923 0.0774,-1.18986 0.0595,-1.76101 -0.0178,-0.57114 -0.0654,-1.0828 -0.16057,-1.529 -0.0952,-0.4462 -0.23793,-0.82696 -0.38062,-1.06499 -0.1427,-0.23804 -0.2855,-0.33324 -0.46413,-0.28575 -0.17863,0.0475 -0.39281,0.23787 -0.53563,0.49976 -0.14282,0.26189 -0.21421,0.59505 -0.2856,0.95203 -0.0714,0.35698 -0.14279,0.73774 -0.21418,1.16612 -0.0714,0.42837 -0.14279,0.90434 -0.19633,1.36841 -0.0535,0.46408 -0.0892,0.91623 -0.11898,1.3565 -0.0297,0.44027 -0.0535,0.86863 -0.0237,1.1483 0.0299,0.27967 0.11313,0.41053 0.23219,0.50564 0.11906,0.0951 0.27373,0.15459 0.35092,0.18427 0.0772,0.0297 0.0772,0.0297 0.22601,-0.0179 z"
           id="path383"
           inkscape:path-effect="#path-effect385"
           inkscape:original-d="m 128.6524,128.50961 c 0.29774,-0.0949 0.59522,-0.19012 0.89243,-0.28558 0.15496,-0.24961 0.30964,-0.49949 0.46406,-0.74963 0.11926,-0.48761 0.23825,-0.97546 0.35697,-1.46359 0.0122,-0.63039 0.024,-1.26103 0.0357,-1.89194 -0.0473,-0.51141 -0.0949,-1.02306 -0.14279,-1.53498 -0.14253,-0.38051 -0.28531,-0.76127 -0.42836,-1.14231 -0.14253,-0.0949 -0.28532,-0.19011 -0.42837,-0.28557 -0.21392,0.19065 -0.4281,0.38103 -0.64255,0.57115 -0.0711,0.33345 -0.14252,0.66661 -0.21418,0.99952 -0.0711,0.38104 -0.14253,0.7618 -0.21418,1.14231 -0.0711,0.47623 -0.14253,0.95219 -0.21419,1.42788 -0.0354,0.45244 -0.0711,0.90459 -0.10709,1.35649 -0.0235,0.42864 -0.0473,0.857 -0.0714,1.2851 0.0836,0.13116 0.16685,0.26204 0.24988,0.39267 0.15495,0.0598 0.30964,0.11925 0.46406,0.17848 z"
           transform="matrix(0.48088529,0,0,0.56953144,-284.32683,-78.765399)" />
        <path
           style="fill:none;stroke:#000000;stroke-width:0.527899;stroke-linecap:butt;stroke-linejoin:miter;stroke-miterlimit:4;stroke-dasharray:none;stroke-opacity:1"
           d="m 140.03978,137.64808 c -0.65413,-0.32112 -1.30858,-0.6424 -2.04038,-1.07075 -0.73181,-0.42835 -1.54093,-0.9638 -2.15972,-1.50516 -0.61879,-0.54136 -1.04715,-1.08871 -1.39823,-1.73125 -0.35108,-0.64255 -0.62474,-1.38027 -0.79138,-2.10018 -0.16663,-0.71992 -0.22613,-1.42195 -0.26184,-2.14186 -0.0357,-0.71991 -0.0476,-1.45763 -0.10708,-2.13586 -0.0595,-0.67824 -0.16656,-1.29697 -0.39851,-1.86218 -0.23195,-0.56521 -0.58892,-1.07686 -0.86006,-1.3992 -0.27115,-0.32234 -0.45662,-0.45532 -0.65126,-0.55714 -0.19463,-0.10183 -0.39837,-0.17225 -0.57721,-0.21083 -0.17885,-0.0386 -0.33272,-0.0452 -0.48711,-0.0517"
           id="path387"
           inkscape:path-effect="#path-effect389"
           inkscape:original-d="m 140.03978,137.64808 c -0.65418,-0.32102 -1.30863,-0.64229 -1.96334,-0.96383 -0.80889,-0.5352 -1.61801,-1.07065 -2.4274,-1.60637 -0.42811,-0.5471 -0.85647,-1.09445 -1.2851,-1.64206 -0.27342,-0.7375 -0.54709,-1.47522 -0.82103,-2.21323 -0.0592,-0.70179 -0.11873,-1.40382 -0.17849,-2.10613 -0.0116,-0.73749 -0.0236,-1.47521 -0.0357,-2.21322 -0.10682,-0.6185 -0.21392,-1.23723 -0.32127,-1.85625 -0.35671,-0.5114 -0.71368,-1.02305 -1.07091,-1.53497 -0.18515,-0.13266 -0.37062,-0.26564 -0.55667,-0.39912 -0.20326,-0.07 -0.407,-0.14041 -0.61124,-0.21127 -0.15339,-0.006 -0.30726,-0.0127 -0.46163,-0.0197"
           sodipodi:nodetypes="cccccccccc"
           transform="matrix(0.48088529,0,0,0.56953144,-284.32683,-78.765399)" />
        <path
           style="fill:none;stroke:#000000;stroke-width:0.527899;stroke-linecap:butt;stroke-linejoin:miter;stroke-miterlimit:4;stroke-dasharray:none;stroke-opacity:1"
           d="m 178.00427,166.0902 c -2.65851,-2.42295 -5.3173,-4.84615 -7.31981,-6.46165 -2.0025,-1.61551 -3.34869,-2.42323 -4.47616,-3.0627 -1.12747,-0.63947 -2.03615,-1.11064 -3.11314,-1.5482 -1.07699,-0.43755 -2.32222,-0.84141 -4.24061,-1.53136 -1.91839,-0.68994 -4.50982,-1.66593 -6.74794,-2.64193 -2.23811,-0.976 -4.12279,-1.95199 -5.77192,-2.82704 -1.64914,-0.87504 -3.06265,-1.64911 -4.44254,-2.40637 -1.37989,-0.75725 -2.72608,-1.49766 -3.7021,-1.98569 -0.97602,-0.48803 -1.58181,-0.72362 -2.47371,-1.39667 -0.89191,-0.67306 -2.06983,-1.78367 -3.18049,-2.97844 -1.11066,-1.19476 -2.15397,-2.47366 -2.92806,-3.48332 -0.7741,-1.00967 -1.27893,-1.75008 -1.48097,-2.49055 -0.20205,-0.74047 -0.10109,-1.48087 -0.0461,-1.96188 0.055,-0.48102 0.0583,-0.56244 0.0864,-1.0326 0.028,-0.47016 0.0453,-0.71225 0.0816,-0.93358 0.0363,-0.22133 0.14283,-0.60628 0.22373,-0.89866"
           id="path399"
           inkscape:path-effect="#path-effect401"
           inkscape:original-d="m 178.00427,166.0902 c -2.65853,-2.42293 -5.31731,-4.84614 -7.97637,-7.2696 -1.34598,-0.80749 -2.69218,-1.6152 -4.03867,-2.4232 -0.90845,-0.47092 -1.81713,-0.94209 -2.7261,-1.41353 -1.24501,-0.40362 -2.49024,-0.80747 -3.73577,-1.21161 -2.59126,-0.97576 -5.18269,-1.95175 -7.77443,-2.92803 -1.88448,-0.97577 -3.76916,-1.95176 -5.65413,-2.92803 -1.4133,-0.77383 -2.82681,-1.54789 -4.2406,-2.32224 -1.34599,-0.74017 -2.69218,-1.48058 -4.03867,-2.22126 -0.60555,-0.23533 -1.21134,-0.47092 -1.8174,-0.70677 -1.17771,-1.11039 -2.35563,-2.221 -3.53384,-3.3319 -1.04307,-1.27867 -2.08638,-2.55756 -3.12996,-3.83673 -0.50458,-0.74018 -1.00941,-1.48059 -1.5145,-2.22127 0.10123,-0.74018 0.20219,-1.48058 0.3029,-2.22127 0.01,-0.22134 0.0129,-0.30278 0.0272,-0.66516 0.0417,-0.57793 0.059,-0.82001 0.0758,-1.0629 0.0559,-0.19964 0.24271,-0.87714 0.24271,-0.87714"
           sodipodi:nodetypes="ccccccccccccccccc"
           transform="matrix(0.48088529,0,0,0.56953144,-284.32683,-78.765399)" />
        <path
           style="fill:none;stroke:#000000;stroke-width:0.264583px;stroke-linecap:butt;stroke-linejoin:miter;stroke-opacity:1"
           d="m 142.43149,136.04171 c 0,0 0,0 0,0 z"
           id="path403"
           inkscape:path-effect="#path-effect405"
           inkscape:original-d="m 142.43149,136.04171 c -0.23772,-0.14253 -0.4757,-0.28532 0,0 z"
           transform="matrix(0.48088529,0,0,0.56953144,-284.32683,-78.765399)" />
        <path
           style="fill:none;stroke:#000000;stroke-width:0.527899;stroke-linecap:butt;stroke-linejoin:miter;stroke-miterlimit:4;stroke-dasharray:none;stroke-opacity:1"
           d="m 130.72283,118.51442 c 2.80848,1.90405 5.61665,3.8079 8.42452,5.71154"
           id="path407"
           inkscape:path-effect="#path-effect409"
           inkscape:original-d="m 130.72283,118.51442 c 2.80844,1.90411 5.61661,3.80796 8.42452,5.71154"
           transform="matrix(0.48088529,0,0,0.56953144,-284.32683,-78.765399)" />
        <path
           style="fill:none;stroke:#000000;stroke-width:0.527899;stroke-linecap:butt;stroke-linejoin:miter;stroke-miterlimit:4;stroke-dasharray:none;stroke-opacity:1"
           d="m 140.00408,122.22692 c -0.26179,3.73654 -0.52357,7.47284 -0.78533,11.2089"
           id="path411"
           inkscape:path-effect="#path-effect413"
           inkscape:original-d="m 140.00408,122.22692 c -0.26151,3.73656 -0.52329,7.47286 -0.78533,11.2089"
           transform="matrix(0.48088529,0,0,0.56953144,-284.32683,-78.765399)" />
        <path
           style="fill:none;stroke:#000000;stroke-width:0.527899;stroke-linecap:butt;stroke-linejoin:miter;stroke-miterlimit:4;stroke-dasharray:none;stroke-opacity:1"
           d="m 148.14311,139.64735 c 3.2759,0.90435 6.5515,1.80861 9.3011,2.68911 2.7496,0.88049 4.97313,1.73714 6.28816,2.28449 1.31502,0.54735 1.72147,0.78531 2.19965,1.11848 0.47819,0.33318 1.0281,0.7615 1.57773,1.1896"
           id="path415"
           inkscape:path-effect="#path-effect417"
           inkscape:original-d="m 148.14311,139.64735 c 3.27585,0.90454 6.55145,1.80879 9.82677,2.71279 2.22388,0.85695 4.44741,1.7136 6.67073,2.57001 0.40673,0.23823 0.81319,0.47618 1.21937,0.71389 0.5502,0.4286 1.10011,0.85692 1.64977,1.28499"
           inkscape:transform-center-x="-0.16204696"
           inkscape:transform-center-y="-0.36256725"
           transform="matrix(0.48088529,0,0,0.56953144,-284.32683,-78.765399)" />
        <ellipse
           id="path1005"
           style="fill:#ff00ff;stroke:#000000;stroke-width:0.243653"
           cx="-189.50624"
           cy="17.406843"
           rx="0.00073834311"
           ry="0.00078176649" />
        <ellipse
           id="path1007"
           style="fill:#ff00ff;stroke:#000000;stroke-width:0.243653"
           cx="-189.50624"
           cy="17.406843"
           rx="0.00073834311"
           ry="0.00078176649" />
      </g>
    </g>
  </g>
</svg>
