<?xml version="1.0" encoding="UTF-8" standalone="no"?>
<!-- Created with Inkscape (http://www.inkscape.org/) -->

<svg
   width="64mm"
   height="20mm"
   viewBox="0 0 64 20"
   version="1.1"
   id="svg31011"
   sodipodi:docname="nails-logo-name1.svg"
   inkscape:version="1.1 (c68e22c387, 2021-05-23)"
   xmlns:inkscape="http://www.inkscape.org/namespaces/inkscape"
   xmlns:sodipodi="http://sodipodi.sourceforge.net/DTD/sodipodi-0.dtd"
   xmlns="http://www.w3.org/2000/svg"
   xmlns:svg="http://www.w3.org/2000/svg">
  <sodipodi:namedview
     id="namedview31013"
     pagecolor="#ffffff"
     bordercolor="#cccccc"
     borderopacity="1"
     inkscape:pageshadow="0"
     inkscape:pageopacity="1"
     inkscape:pagecheckerboard="0"
     inkscape:document-units="mm"
     showgrid="false"
     inkscape:zoom="1.8529742"
     inkscape:cx="161.09237"
     inkscape:cy="87.157178"
     inkscape:window-width="1366"
     inkscape:window-height="705"
     inkscape:window-x="-8"
     inkscape:window-y="-8"
     inkscape:window-maximized="1"
     inkscape:current-layer="layer1" />
  <defs
     id="defs31008">
    <inkscape:path-effect
       effect="bspline"
       id="path-effect31320"
       is_visible="true"
       lpeversion="1"
       weight="33.333333"
       steps="2"
       helper_size="0"
       apply_no_weight="true"
       apply_with_weight="true"
       only_selected="false" />
    <inkscape:path-effect
       effect="bspline"
       id="path-effect31203"
       is_visible="true"
       lpeversion="1"
       weight="33.333333"
       steps="2"
       helper_size="0"
       apply_no_weight="true"
       apply_with_weight="true"
       only_selected="false" />
    <inkscape:path-effect
       effect="bspline"
       id="path-effect31199"
       is_visible="true"
       lpeversion="1"
       weight="33.333333"
       steps="2"
       helper_size="0"
       apply_no_weight="true"
       apply_with_weight="true"
       only_selected="false" />
    <inkscape:path-effect
       effect="bspline"
       id="path-effect31195"
       is_visible="true"
       lpeversion="1"
       weight="33.333333"
       steps="2"
       helper_size="0"
       apply_no_weight="true"
       apply_with_weight="true"
       only_selected="false" />
    <inkscape:path-effect
       effect="bspline"
       id="path-effect31191"
       is_visible="true"
       lpeversion="1"
       weight="33.333333"
       steps="2"
       helper_size="0"
       apply_no_weight="true"
       apply_with_weight="true"
       only_selected="false" />
    <inkscape:path-effect
       effect="bspline"
       id="path-effect31187"
       is_visible="true"
       lpeversion="1"
       weight="33.333333"
       steps="2"
       helper_size="0"
       apply_no_weight="true"
       apply_with_weight="true"
       only_selected="false" />
    <inkscape:path-effect
       effect="bspline"
       id="path-effect31183"
       is_visible="true"
       lpeversion="1"
       weight="33.333333"
       steps="2"
       helper_size="0"
       apply_no_weight="true"
       apply_with_weight="true"
       only_selected="false" />
    <inkscape:path-effect
       effect="bspline"
       id="path-effect31179"
       is_visible="true"
       lpeversion="1"
       weight="33.333333"
       steps="2"
       helper_size="0"
       apply_no_weight="true"
       apply_with_weight="true"
       only_selected="false" />
    <inkscape:path-effect
       effect="bspline"
       id="path-effect31175"
       is_visible="true"
       lpeversion="1"
       weight="33.333333"
       steps="2"
       helper_size="0"
       apply_no_weight="true"
       apply_with_weight="true"
       only_selected="false" />
    <rect
       x="253.38664"
       y="59.530598"
       width="235.06953"
       height="105.32336"
       id="rect3429" />
  </defs>
  <g
     inkscape:label="Layer 1"
     inkscape:groupmode="layer"
     id="layer1">
    <path
       style="fill:none;stroke:#000000;stroke-width:0.665;stroke-linecap:butt;stroke-linejoin:miter;stroke-opacity:1;stroke-miterlimit:4;stroke-dasharray:none"
       d="M 11.1375,2.8557693 C 10.49492,3.7125425 9.852372,4.5692731 9.3050056,5.3546303 8.7576393,6.1399874 8.305485,6.8539152 7.7700198,7.7463611 7.2345546,8.6388071 6.615817,9.7096991 6.0565552,10.733035 5.4972934,11.756372 4.9975435,12.732074 4.5453755,13.636413 4.0932075,14.540751 3.6886483,15.373667 3.4506702,15.932964 3.212692,16.49226 3.1412993,16.777831 3.0699519,17.063221"
       id="path31173"
       inkscape:path-effect="#path-effect31175"
       inkscape:original-d="M 11.1375,2.8557693 C 10.495216,3.7127645 9.8526683,4.5694954 9.2098557,5.4259614 8.7579477,6.1401827 8.3057933,6.8541105 7.8533653,7.5677884 7.2348674,8.6389878 6.61613,9.7098799 5.9971153,10.780529 c -0.499505,0.976005 -0.9992547,1.951707 -1.4992789,2.927163 -0.4043108,0.833214 -0.8088698,1.66613 -1.2137019,2.498798 -0.071131,0.285848 -0.1425239,0.571419 -0.2141826,0.856731" />
    <path
       style="fill:none;stroke:#000000;stroke-width:0.665;stroke-linecap:butt;stroke-linejoin:miter;stroke-opacity:1;stroke-miterlimit:4;stroke-dasharray:none"
       d="M 7.2822114,4.7834134 C 8.0201141,4.5453803 8.7578545,4.3073995 9.6265202,4.1051225 10.495186,3.9028455 11.494686,3.7362622 12.172959,3.6529868 c 0.678274,-0.083275 1.035238,-0.083275 1.391945,-0.083275"
       id="path31177"
       inkscape:path-effect="#path-effect31179"
       inkscape:original-d="M 7.2822114,4.7834134 C 8.0202163,4.5456972 8.7579567,4.3077164 9.4954327,4.069471 10.495236,3.9031457 11.494736,3.7365627 12.49399,3.5697115 c 0.357243,2.645e-4 0.714207,2.645e-4 1.070914,0" />
    <path
       style="fill:none;stroke:#000000;stroke-width:0.665;stroke-linecap:butt;stroke-linejoin:miter;stroke-opacity:1;stroke-miterlimit:4;stroke-dasharray:none"
       d="M 0.85673077,17.991346 C 1.594602,17.681916 2.332342,17.372541 3.1890914,17.039365 c 0.8567493,-0.333176 1.832451,-0.69014 2.439348,-0.880509 0.606897,-0.190369 0.8448734,-0.214165 1.0590865,-0.214135 0.2142131,3.1e-5 0.4045942,0.02383 0.5946855,0.04759"
       id="path31181"
       inkscape:path-effect="#path-effect31183"
       inkscape:original-d="M 0.85673077,17.991346 C 1.5947357,17.682235 2.3324761,17.372861 3.0699519,17.063221 c 0.9760053,-0.356714 1.9517069,-0.713678 2.9271634,-1.070913 0.2382502,-0.02353 0.4762262,-0.04733 0.7139424,-0.07139 0.190653,0.02406 0.3810336,0.04786 0.5711537,0.07139" />
    <path
       style="fill:none;stroke:#000000;stroke-width:0.665;stroke-linecap:butt;stroke-linejoin:miter;stroke-opacity:1;stroke-miterlimit:4;stroke-dasharray:none"
       d="m 14.707211,5.0689904 c -0.690184,1.0233763 -1.380328,2.046694 -1.987188,2.9986358 -0.606859,0.9519418 -1.130406,1.8324531 -1.725367,2.9152888 -0.594962,1.082836 -1.2612948,2.367907 -1.6182553,3.189006 -0.3569606,0.8211 -0.4045557,1.178064 -0.1784429,1.14224 0.2261128,-0.03582 0.7258624,-0.46418 1.3327102,-1.035331 0.606847,-0.571152 1.320775,-1.28508 2.034717,-2.046618 0.713941,-0.761538 1.427869,-1.570656 2.165616,-2.4154954 0.737746,-0.8448391 1.49927,-1.7253501 1.808627,-1.9156525 0.309358,-0.1903024 0.166572,0.3094471 -0.130911,1.1423746 -0.297483,0.8329274 -0.749637,1.9990093 -1.10661,2.9628463 -0.356973,0.963837 -0.618747,1.725361 -0.725796,2.332283 -0.107049,0.606922 -0.05945,1.059077 0.05965,1.392247 0.119101,0.33317 0.309482,0.547349 0.511788,0.666215 0.202307,0.118866 0.416486,0.142663 0.773388,0.05932 0.356903,-0.08334 0.856652,-0.27372 1.522949,-0.713975 0.666296,-0.440256 1.499212,-1.130386 2.332133,-1.939511 0.832921,-0.809126 1.665837,-1.737232 2.403573,-2.641552 0.737737,-0.90432 1.380272,-1.7848314 1.891924,-2.6772264 0.511652,-0.892395 0.892414,-1.7967039 1.130402,-2.4749188 0.237988,-0.678215 0.333178,-1.1303691 0.309456,-1.5586774 -0.02372,-0.4283083 -0.166508,-0.8328676 -0.309409,-1.237753"
       id="path31185"
       inkscape:path-effect="#path-effect31187"
       inkscape:original-d="m 14.707211,5.0689904 c -0.689879,1.0235818 -1.380024,2.0468991 -2.070432,3.0699519 -0.523304,0.8808108 -1.046851,1.7613222 -1.570673,2.6415867 -0.666095,1.285386 -1.3324282,2.570457 -1.9990387,3.855288 -0.047333,0.357243 -0.094928,0.714207 -0.1427885,1.070914 0.5000342,-0.42811 0.9997836,-0.856467 1.4992792,-1.285096 0.714221,-0.713693 1.428149,-1.427621 2.141827,-2.141827 0.714221,-0.808887 1.428149,-1.618005 2.141826,-2.4274042 0.761819,-0.880282 1.523342,-1.7607931 2.284616,-2.6415865 -0.142527,0.5000342 -0.285313,0.9997837 -0.428366,1.4992789 -0.451908,1.1663936 -0.904062,2.3324758 -1.35649,3.4983168 -0.261519,0.761818 -0.523293,1.523342 -0.785336,2.284616 0.04786,0.452437 0.09546,0.904591 0.142788,1.35649 0.190653,0.214452 0.381034,0.42863 0.571154,0.642548 0.214451,0.02406 0.42863,0.04786 0.642548,0.07139 0.500034,-0.190124 0.999784,-0.380504 1.499279,-0.571153 0.833214,-0.689894 1.66613,-1.380024 2.498798,-2.070433 0.833214,-0.927879 1.66613,-1.855986 2.498798,-2.784375 0.642825,-0.880282 1.285361,-1.7607933 1.927644,-2.6415867 0.381041,-0.9040804 0.761803,-1.8083892 1.142308,-2.7129805 0.09546,-0.4519081 0.190649,-0.9040625 0.285576,-1.3564905 C 25.488002,4.0221315 25.345216,3.6175722 25.202163,3.2127404" />
    <path
       style="fill:none;stroke:#000000;stroke-width:0.665;stroke-linecap:butt;stroke-linejoin:miter;stroke-opacity:1;stroke-miterlimit:4;stroke-dasharray:none"
       d="m 34.483413,2.3560096 c -0.785388,1.4755774 -1.570724,2.9510579 -2.308473,4.4265629 -0.737748,1.475505 -1.427879,2.9509562 -2.09423,4.3074525 -0.666352,1.356495 -1.308887,2.59397 -1.522926,3.200758 -0.214039,0.606788 1.42e-4,0.582992 0.523573,-0.01193 0.523431,-0.594925 1.356347,-1.761007 2.082199,-2.736743 0.725852,-0.975737 1.34459,-1.7610581 2.094254,-2.5821192 0.749663,-0.8210612 1.630175,-1.6777751 2.582115,-2.5583184 0.951939,-0.8805432 1.975236,-1.7848521 2.796305,-2.4274196 0.821068,-0.6425675 1.439804,-1.0233286 1.868268,-1.2136906 0.428464,-0.1903619 0.666438,-0.1903619 0.785297,0.012058 0.118859,0.2024201 0.118859,0.6069791 -0.142952,1.3684543 -0.261811,0.7614751 -0.785358,1.8799623 -1.558807,3.617251 -0.773448,1.7372888 -1.796745,4.0932514 -2.474993,5.6758344 -0.678248,1.582584 -1.011415,2.391702 -1.273192,3.165172 -0.261777,0.773471 -0.452158,1.511197 -0.523483,1.963427 -0.07132,0.45223 -0.02373,0.618814 0.02378,0.785085"
       id="path31189"
       inkscape:path-effect="#path-effect31191"
       inkscape:original-d="m 34.483413,2.3560096 c -0.785072,1.4757455 -1.570408,2.9512261 -2.356009,4.4264422 -0.689893,1.475775 -1.380024,2.951226 -2.070433,4.4264422 -0.642298,1.23779 -1.284833,2.475265 -1.927643,3.7125 0.21445,-0.02353 0.42863,-0.04733 0.642545,-0.07139 0.833216,-1.165865 1.666132,-2.331947 2.4988,-3.498317 C 31.8897,10.566599 32.508438,9.781278 33.126923,8.9956769 34.007734,8.1391937 34.888246,7.28248 35.76851,6.4254848 36.792111,5.5214043 37.815408,4.6170956 38.838462,3.7125039 39.457489,3.3319916 40.076225,2.95123 40.69471,2.5701963 c 0.238252,2.646e-4 0.476226,2.646e-4 0.713944,0 2.64e-4,0.4048401 2.64e-4,0.8093991 0,1.213702 -0.523304,1.1187964 -1.046851,2.2372836 -1.570673,3.3555286 -1.023075,2.3563215 -2.046372,4.7122841 -3.069952,7.0680291 -0.332915,0.809415 -0.666083,1.618533 -0.999519,2.427404 -0.190125,0.738019 -0.380505,1.475745 -0.571154,2.213221 0.04786,0.166854 0.09546,0.333437 0.142788,0.499759" />
    <path
       style="fill:none;stroke:#000000;stroke-width:0.665;stroke-linecap:butt;stroke-linejoin:miter;stroke-opacity:1;stroke-miterlimit:4;stroke-dasharray:none"
       d="m 43.94326,9.3885752 c -0.05934,-0.202253 -0.225929,-0.3688397 -0.59485,-0.3689955 -0.368922,-1.559e-4 -0.940065,0.1664276 -1.487505,0.4877255 -0.54744,0.3212979 -1.070987,0.7972498 -1.380395,1.2019138 -0.309407,0.404664 -0.404598,0.737831 -0.285448,0.90433 0.119151,0.166499 0.452317,0.166499 0.892525,0.05938 0.440208,-0.107121 0.987552,-0.321299 1.47536,-0.606863 0.487808,-0.285564 0.916166,-0.642529 1.154113,-0.939894 0.237947,-0.2973652 0.285543,-0.5353419 0.2262,-0.7375948 z"
       id="path31193"
       inkscape:path-effect="#path-effect31195"
       inkscape:original-d="M 44.05024,9.3526442 C 43.883918,9.1863221 43.717331,9.0197357 43.55048,8.8528844 c -0.5709,0.1668545 -1.142043,0.3334377 -1.713461,0.4997598 -0.523303,0.4762355 -1.04685,0.9521878 -1.570672,1.4278848 -0.09493,0.333444 -0.190122,0.666611 -0.285578,0.999519 0.333444,2.64e-4 0.66661,2.64e-4 0.999519,0 0.547632,-0.213922 1.094976,-0.428101 1.642068,-0.642548 0.428638,-0.356714 0.856996,-0.713678 1.285094,-1.070914 0.04786,-0.2377206 0.09546,-0.4756964 0.14279,-0.7139418 z" />
    <path
       style="fill:none;stroke:#000000;stroke-width:0.665;stroke-linecap:butt;stroke-linejoin:miter;stroke-opacity:1;stroke-miterlimit:4;stroke-dasharray:none"
       d="m 43.94326,9.3885752 c -0.452208,0.7140118 -0.904371,1.4279528 -1.070862,1.9159418 -0.166491,0.487988 -0.0475,0.749762 0.214293,0.82097 0.261796,0.07121 0.666355,-0.04778 1.154171,-0.285761 0.487817,-0.237981 1.058959,-0.594946 1.582519,-0.928121 0.523559,-0.333175 0.99951,-0.642543 1.201734,-0.690037 0.202225,-0.04749 0.130831,0.166685 -0.08334,0.511704 -0.214176,0.345019 -0.571138,0.820971 -0.570997,1.047024 1.41e-4,0.226053 0.357106,0.202256 1.154305,-0.03575 0.7972,-0.238004 2.034675,-0.690158 2.772445,-0.940031 0.73777,-0.249874 0.975748,-0.29747 1.213523,-0.345025"
       id="path31197"
       inkscape:path-effect="#path-effect31199"
       inkscape:original-d="m 43.94326,9.3885752 c -0.4519,0.7142068 -0.904062,1.4281488 -1.356492,2.1418268 0.119258,0.262049 0.238247,0.523822 0.356973,0.785336 0.404839,-0.118728 0.809398,-0.237716 1.213702,-0.356971 0.571429,-0.356713 1.142572,-0.713677 1.71346,-1.070913 0.476237,-0.309117 0.952188,-0.618485 1.427885,-0.9281252 -0.07113,0.2144512 -0.142523,0.4286302 -0.214183,0.6425482 -0.356714,0.476236 -0.713676,0.952188 -1.070911,1.427885 0.35724,-0.02353 0.714205,-0.04733 1.070911,-0.07139 1.23779,-0.451908 2.475265,-0.904062 3.712501,-1.35649 0.23825,-0.04733 0.476227,-0.09493 0.713941,-0.142789" />
    <path
       style="fill:none;stroke:#000000;stroke-width:0.665;stroke-linecap:butt;stroke-linejoin:miter;stroke-opacity:1;stroke-miterlimit:4;stroke-dasharray:none"
       d="m 59.614182,1.4992788 c -1.142295,1.0471038 -2.284604,2.0942198 -3.486434,3.3555493 -1.201831,1.2613295 -2.463103,2.7367806 -3.284139,3.6887058 -0.821035,0.9519251 -1.201798,1.3802835 -1.237381,1.8206961 -0.03558,0.440412 0.273787,0.892565 0.868707,0.928079 0.594921,0.03551 1.475431,-0.345248 2.272668,-0.702222 0.797238,-0.356974 1.511167,-0.6901414 1.903808,-0.8805197 0.392641,-0.1903783 0.464034,-0.2379734 0.463981,-0.095062 -5.2e-5,0.1429113 -0.07144,0.4760778 -0.309435,1.0590948 -0.23799,0.583017 -0.642549,1.415934 -0.975726,2.117987 -0.333176,0.702053 -0.594949,1.273195 -0.963815,1.891917 -0.368866,0.618723 -0.844817,1.285056 -1.296936,1.760975 -0.45212,0.475919 -0.880477,0.76149 -1.225439,0.797323 -0.344962,0.03583 -0.606735,-0.178344 -0.642601,-0.547264 -0.03587,-0.368919 0.154514,-0.892466 0.499616,-1.416101 0.345101,-0.523634 0.84485,-1.04718 1.404134,-1.546963 0.559284,-0.499782 1.17802,-0.975733 1.7968,-1.392213 0.61878,-0.41648 1.237516,-0.773443 2.011009,-1.082822 0.773493,-0.309378 1.701599,-0.571151 2.463164,-0.749631 0.761565,-0.178479 1.356504,-0.273669 1.95124,-0.368827"
       id="path31201"
       inkscape:path-effect="#path-effect31203"
       inkscape:original-d="m 59.614182,1.4992788 c -1.142042,1.04738 -2.284351,2.0944953 -3.426923,3.141346 -1.261059,1.4757749 -2.522331,2.9512262 -3.783893,4.4264423 -0.380513,0.4286401 -0.761275,0.8569987 -1.14231,1.2851009 0.309645,0.452436 0.619014,0.904589 0.928127,1.356486 0.880811,-0.380512 1.761321,-0.761274 2.641587,-1.142308 0.714219,-0.332915 1.428149,-0.6660816 2.141826,-0.9995193 0.07166,-0.047332 0.143052,-0.094928 0.214182,-0.1427885 -0.07113,0.3334443 -0.142523,0.6666108 -0.214182,0.9995198 -0.40431,0.833214 -0.808871,1.66613 -1.213702,2.498798 -0.26152,0.57143 -0.523293,1.142572 -0.785337,1.713461 -0.475707,0.666624 -0.951658,1.332957 -1.427884,1.999039 -0.428109,0.285847 -0.856467,0.571418 -1.285097,0.856731 -0.26152,-0.213923 -0.523293,-0.428101 -0.785337,-0.642548 0.190654,-0.523304 0.381035,-1.046851 0.571154,-1.570674 0.500036,-0.523303 0.999783,-1.04685 1.49928,-1.570673 0.619027,-0.475706 1.237763,-0.951658 1.85625,-1.427884 0.619027,-0.356714 1.237763,-0.713678 1.856251,-1.070914 0.928407,-0.261519 1.856512,-0.523293 2.784374,-0.785336 0.595228,-0.09493 1.190167,-0.19012 1.784855,-0.285577" />
    <path
       style="fill:none;stroke:#000000;stroke-width:0.565;stroke-linecap:butt;stroke-linejoin:miter;stroke-opacity:1;stroke-miterlimit:4;stroke-dasharray:none"
       d="M 50.261538,5.5687499 C 49.737969,6.1399157 49.214411,6.7110698 48.690865,7.2822114"
       id="path31318"
       inkscape:path-effect="#path-effect31320"
       inkscape:original-d="M 50.261538,5.5687499 C 49.738245,6.1401684 49.214687,6.7113223 48.690865,7.2822114" />
  </g>
</svg>
