<?xml version="1.0" encoding="UTF-8" standalone="no"?>
<!-- Created with Inkscape (http://www.inkscape.org/) -->

<svg
   width="35mm"
   height="39mm"
   viewBox="0 0 35 39"
   version="1.1"
   id="svg31011"
   sodipodi:docname="nails-logo-name-mobile.svg"
   inkscape:version="1.1 (c68e22c387, 2021-05-23)"
   xmlns:inkscape="http://www.inkscape.org/namespaces/inkscape"
   xmlns:sodipodi="http://sodipodi.sourceforge.net/DTD/sodipodi-0.dtd"
   xmlns="http://www.w3.org/2000/svg"
   xmlns:svg="http://www.w3.org/2000/svg">
  <sodipodi:namedview
     id="namedview31013"
     pagecolor="#ffffff"
     bordercolor="#cccccc"
     borderopacity="1"
     inkscape:pageshadow="0"
     inkscape:pageopacity="1"
     inkscape:pagecheckerboard="0"
     inkscape:document-units="mm"
     showgrid="false"
     inkscape:zoom="1.8529742"
     inkscape:cx="161.09237"
     inkscape:cy="87.157177"
     inkscape:window-width="1366"
     inkscape:window-height="705"
     inkscape:window-x="-8"
     inkscape:window-y="-8"
     inkscape:window-maximized="1"
     inkscape:current-layer="layer1" />
  <defs
     id="defs31008">
    <inkscape:path-effect
       effect="bspline"
       id="path-effect31320"
       is_visible="true"
       lpeversion="1"
       weight="33.333333"
       steps="2"
       helper_size="0"
       apply_no_weight="true"
       apply_with_weight="true"
       only_selected="false" />
    <inkscape:path-effect
       effect="bspline"
       id="path-effect31203"
       is_visible="true"
       lpeversion="1"
       weight="33.333333"
       steps="2"
       helper_size="0"
       apply_no_weight="true"
       apply_with_weight="true"
       only_selected="false" />
    <inkscape:path-effect
       effect="bspline"
       id="path-effect31199"
       is_visible="true"
       lpeversion="1"
       weight="33.333333"
       steps="2"
       helper_size="0"
       apply_no_weight="true"
       apply_with_weight="true"
       only_selected="false" />
    <inkscape:path-effect
       effect="bspline"
       id="path-effect31195"
       is_visible="true"
       lpeversion="1"
       weight="33.333333"
       steps="2"
       helper_size="0"
       apply_no_weight="true"
       apply_with_weight="true"
       only_selected="false" />
    <inkscape:path-effect
       effect="bspline"
       id="path-effect31191"
       is_visible="true"
       lpeversion="1"
       weight="33.333333"
       steps="2"
       helper_size="0"
       apply_no_weight="true"
       apply_with_weight="true"
       only_selected="false" />
    <inkscape:path-effect
       effect="bspline"
       id="path-effect31187"
       is_visible="true"
       lpeversion="1"
       weight="33.333333"
       steps="2"
       helper_size="0"
       apply_no_weight="true"
       apply_with_weight="true"
       only_selected="false" />
    <inkscape:path-effect
       effect="bspline"
       id="path-effect31183"
       is_visible="true"
       lpeversion="1"
       weight="33.333333"
       steps="2"
       helper_size="0"
       apply_no_weight="true"
       apply_with_weight="true"
       only_selected="false" />
    <inkscape:path-effect
       effect="bspline"
       id="path-effect31179"
       is_visible="true"
       lpeversion="1"
       weight="33.333333"
       steps="2"
       helper_size="0"
       apply_no_weight="true"
       apply_with_weight="true"
       only_selected="false" />
    <inkscape:path-effect
       effect="bspline"
       id="path-effect31175"
       is_visible="true"
       lpeversion="1"
       weight="33.333333"
       steps="2"
       helper_size="0"
       apply_no_weight="true"
       apply_with_weight="true"
       only_selected="false" />
    <rect
       x="253.38664"
       y="59.530598"
       width="235.06953"
       height="105.32336"
       id="rect3429" />
  </defs>
  <g
     inkscape:label="Layer 1"
     inkscape:groupmode="layer"
     id="layer1">
    <g
       id="g923"
       transform="translate(6.5682692,-0.14278846)">
      <path
         style="fill:none;stroke:#000000;stroke-width:0.665;stroke-linecap:butt;stroke-linejoin:miter;stroke-miterlimit:4;stroke-dasharray:none;stroke-opacity:1"
         d="M 7.2822114,4.7834134 C 8.0201141,4.5453803 8.7578545,4.3073995 9.6265202,4.1051225 10.495186,3.9028455 11.494686,3.7362622 12.172959,3.6529868 c 0.678274,-0.083275 1.035238,-0.083275 1.391945,-0.083275"
         id="path31177"
         inkscape:path-effect="#path-effect31179"
         inkscape:original-d="M 7.2822114,4.7834134 C 8.0202163,4.5456972 8.7579567,4.3077164 9.4954327,4.069471 10.495236,3.9031457 11.494736,3.7365627 12.49399,3.5697115 c 0.357243,2.645e-4 0.714207,2.645e-4 1.070914,0" />
      <path
         style="fill:none;stroke:#000000;stroke-width:0.665;stroke-linecap:butt;stroke-linejoin:miter;stroke-miterlimit:4;stroke-dasharray:none;stroke-opacity:1"
         d="M 0.85673077,17.991346 C 1.594602,17.681916 2.332342,17.372541 3.1890914,17.039365 c 0.8567493,-0.333176 1.832451,-0.69014 2.439348,-0.880509 0.606897,-0.190369 0.8448734,-0.214165 1.0590865,-0.214135 0.2142131,3.1e-5 0.4045942,0.02383 0.5946855,0.04759"
         id="path31181"
         inkscape:path-effect="#path-effect31183"
         inkscape:original-d="M 0.85673077,17.991346 C 1.5947357,17.682235 2.3324761,17.372861 3.0699519,17.063221 c 0.9760053,-0.356714 1.9517069,-0.713678 2.9271634,-1.070913 0.2382502,-0.02353 0.4762262,-0.04733 0.7139424,-0.07139 0.190653,0.02406 0.3810336,0.04786 0.5711537,0.07139" />
    </g>
    <g
       id="g928">
      <path
         style="fill:none;stroke:#000000;stroke-width:0.665;stroke-linecap:butt;stroke-linejoin:miter;stroke-miterlimit:4;stroke-dasharray:none;stroke-opacity:1"
         d="m 17.705769,2.7129808 c -0.64258,0.8567733 -1.285128,1.7135041 -1.832494,2.498861 -0.547367,0.785357 -0.999521,1.499285 -1.534986,2.3917307 -0.535465,0.8924457 -1.154203,1.963338 -1.713465,2.9866745 -0.559262,1.023337 -1.059011,1.999039 -1.511179,2.903378 -0.452168,0.904339 -0.856727,1.737254 -1.094706,2.296551 -0.2379778,0.559296 -0.3093705,0.844867 -0.3807179,1.130257"
         id="path31173"
         inkscape:path-effect="#path-effect31175"
         inkscape:original-d="m 17.705769,2.7129808 c -0.642284,0.8569952 -1.284832,1.7137261 -1.927644,2.5701921 -0.451908,0.7142213 -0.904063,1.4281491 -1.356491,2.141827 -0.618497,1.0711994 -1.237235,2.1420915 -1.85625,3.2127411 -0.499505,0.976005 -0.999254,1.951707 -1.499278,2.927163 -0.404311,0.833214 -0.80887,1.66613 -1.2137023,2.498798 -0.071131,0.285848 -0.1425239,0.571419 -0.2141826,0.856731" />
      <path
         style="fill:none;stroke:#000000;stroke-width:0.665;stroke-linecap:butt;stroke-linejoin:miter;stroke-miterlimit:4;stroke-dasharray:none;stroke-opacity:1"
         d="m 21.27548,4.9262019 c -0.690184,1.0233763 -1.380328,2.046694 -1.987188,2.9986359 -0.606859,0.9519418 -1.130406,1.8324531 -1.725367,2.9152892 -0.594962,1.082836 -1.261295,2.367907 -1.618255,3.189006 -0.356961,0.821099 -0.404556,1.178064 -0.178443,1.142241 0.226113,-0.03582 0.725863,-0.464181 1.33271,-1.035332 0.606847,-0.571152 1.320775,-1.28508 2.034717,-2.046618 0.713941,-0.761538 1.427869,-1.570656 2.165616,-2.4154957 0.737746,-0.8448393 1.49927,-1.7253503 1.808627,-1.9156527 0.309358,-0.1903024 0.166572,0.3094471 -0.130911,1.1423746 -0.297483,0.8329274 -0.749637,1.9990098 -1.10661,2.9628468 -0.356973,0.963837 -0.618747,1.725361 -0.725796,2.332283 -0.107049,0.606922 -0.05945,1.059077 0.05965,1.392247 0.119101,0.33317 0.309482,0.547349 0.511788,0.666215 0.202307,0.118866 0.416486,0.142663 0.773388,0.05932 0.356903,-0.08334 0.856652,-0.27372 1.522949,-0.713975 0.666296,-0.440256 1.499212,-1.130386 2.332133,-1.939511 0.832921,-0.809126 1.665837,-1.737232 2.403573,-2.641552 0.737737,-0.90432 1.380272,-1.7848318 1.891924,-2.6772269 0.511652,-0.892395 0.892414,-1.7967039 1.130402,-2.4749188 0.237988,-0.678215 0.333178,-1.1303691 0.309456,-1.5586774 -0.02372,-0.4283083 -0.166508,-0.8328676 -0.309409,-1.237753"
         id="path31185"
         inkscape:path-effect="#path-effect31187"
         inkscape:original-d="m 21.27548,4.9262019 c -0.689879,1.0235818 -1.380024,2.0468991 -2.070432,3.0699519 -0.523304,0.8808108 -1.046851,1.7613222 -1.570673,2.6415872 -0.666095,1.285386 -1.332428,2.570457 -1.999039,3.855288 -0.04733,0.357243 -0.09493,0.714207 -0.142788,1.070914 0.500034,-0.42811 0.999784,-0.856467 1.499279,-1.285096 0.714221,-0.713693 1.428149,-1.427621 2.141827,-2.141827 0.714221,-0.808887 1.428149,-1.618005 2.141826,-2.4274047 0.761819,-0.880282 1.523342,-1.7607931 2.284616,-2.6415865 -0.142527,0.5000342 -0.285313,0.9997837 -0.428366,1.4992789 -0.451908,1.1663936 -0.904062,2.3324763 -1.35649,3.4983173 -0.261519,0.761818 -0.523293,1.523342 -0.785336,2.284616 0.04786,0.452437 0.09546,0.904591 0.142788,1.35649 0.190653,0.214452 0.381034,0.42863 0.571154,0.642548 0.214451,0.02406 0.42863,0.04786 0.642548,0.07139 0.500034,-0.190124 0.999784,-0.380504 1.499279,-0.571153 0.833214,-0.689894 1.66613,-1.380024 2.498798,-2.070433 0.833214,-0.927879 1.66613,-1.855986 2.498798,-2.784375 C 29.486094,10.114426 30.12863,9.2339142 30.770913,8.3531208 31.151954,7.4490404 31.532716,6.5447316 31.913221,5.6401403 32.008681,5.1882322 32.10387,4.7360778 32.198797,4.2836498 32.056271,3.879343 31.913485,3.4747837 31.770432,3.0699519" />
    </g>
    <g
       id="g935"
       transform="translate(1.85625,-0.28557692)">
      <path
         style="fill:none;stroke:#000000;stroke-width:0.665;stroke-linecap:butt;stroke-linejoin:miter;stroke-miterlimit:4;stroke-dasharray:none;stroke-opacity:1"
         d="m 5.2117786,21.346875 c -0.7853876,1.475577 -1.570724,2.951058 -2.3084726,4.426563 -0.7377486,1.475505 -1.4278791,2.950956 -2.09423089,4.307452 -0.66635176,1.356495 -1.30888651,2.59397 -1.52292528,3.200758 -0.21403877,0.606788 1.4162e-4,0.582992 0.52357269,-0.01193 0.52343108,-0.594925 1.35634738,-1.761007 2.08219928,-2.736743 0.725852,-0.975737 1.3445898,-1.761058 2.0942533,-2.582119 0.7496636,-0.821061 1.6301755,-1.677775 2.582115,-2.558318 0.9519395,-0.880543 1.9752365,-1.784852 2.7963052,-2.42742 0.8210687,-0.642567 1.4398057,-1.023329 1.8682687,-1.21369 0.428464,-0.190362 0.666438,-0.190362 0.785297,0.01206 0.118859,0.20242 0.118859,0.606979 -0.142952,1.368454 -0.261811,0.761475 -0.785358,1.879962 -1.558807,3.617251 -0.7734482,1.737289 -1.796745,4.093251 -2.4749933,5.675834 -0.6782484,1.582584 -1.0114148,2.391702 -1.2731919,3.165172 -0.2617771,0.773471 -0.452158,1.511197 -0.5234833,1.963427 -0.071325,0.45223 -0.02373,0.618814 0.023776,0.785085"
         id="path31189"
         inkscape:path-effect="#path-effect31191"
         inkscape:original-d="m 5.2117786,21.346875 c -0.785072,1.475745 -1.570408,2.951226 -2.356009,4.426442 -0.689893,1.475775 -1.380024,2.951226 -2.070433,4.426442 -0.642298,1.23779 -1.284833,2.475265 -1.927643,3.7125 0.21445,-0.02353 0.42863,-0.04733 0.642545,-0.07139 0.833216,-1.165865 1.666132,-2.331947 2.4988,-3.498317 0.619027,-0.785088 1.237765,-1.570409 1.85625,-2.35601 0.880811,-0.856483 1.761323,-1.713197 2.641587,-2.570192 1.023601,-0.90408 2.046898,-1.808389 3.069952,-2.712981 0.6190274,-0.380512 1.2377634,-0.761274 1.8562484,-1.142307 0.238252,2.64e-4 0.476226,2.64e-4 0.713944,0 2.64e-4,0.40484 2.64e-4,0.809399 0,1.213702 -0.523304,1.118796 -1.046851,2.237283 -1.570673,3.355528 -1.0230754,2.356322 -2.0463724,4.712284 -3.0699524,7.068029 -0.332915,0.809415 -0.666083,1.618533 -0.999519,2.427404 -0.190125,0.738019 -0.380505,1.475745 -0.571154,2.213221 0.04786,0.166854 0.09546,0.333437 0.142788,0.499759" />
      <path
         style="fill:none;stroke:#000000;stroke-width:0.665;stroke-linecap:butt;stroke-linejoin:miter;stroke-miterlimit:4;stroke-dasharray:none;stroke-opacity:1"
         d="m 14.671626,28.37944 c -0.05934,-0.202253 -0.225929,-0.368839 -0.59485,-0.368995 -0.368922,-1.56e-4 -0.940065,0.166427 -1.487505,0.487725 -0.547441,0.321298 -1.070987,0.79725 -1.380395,1.201914 -0.309407,0.404664 -0.404598,0.737831 -0.285448,0.90433 0.119151,0.166499 0.452317,0.166499 0.892525,0.05938 0.440208,-0.107121 0.987552,-0.321299 1.47536,-0.606863 0.487808,-0.285564 0.916166,-0.642529 1.154113,-0.939894 0.237947,-0.297365 0.285543,-0.535341 0.2262,-0.737595 z"
         id="path31193"
         inkscape:path-effect="#path-effect31195"
         inkscape:original-d="m 14.778606,28.343509 c -0.166322,-0.166322 -0.332909,-0.332908 -0.49976,-0.499759 -0.5709,0.166854 -1.142043,0.333437 -1.713461,0.499759 -0.523303,0.476236 -1.04685,0.952188 -1.570672,1.427885 -0.09493,0.333444 -0.190122,0.666611 -0.285578,0.999519 0.333444,2.64e-4 0.66661,2.64e-4 0.999519,0 0.547632,-0.213922 1.094976,-0.428101 1.642068,-0.642548 0.428638,-0.356714 0.856996,-0.713678 1.285094,-1.070914 0.04786,-0.23772 0.09546,-0.475696 0.14279,-0.713942 z" />
      <path
         style="fill:none;stroke:#000000;stroke-width:0.665;stroke-linecap:butt;stroke-linejoin:miter;stroke-miterlimit:4;stroke-dasharray:none;stroke-opacity:1"
         d="m 14.671626,28.37944 c -0.452208,0.714012 -0.904371,1.427953 -1.070862,1.915942 -0.166491,0.487988 -0.0475,0.749762 0.214293,0.82097 0.261796,0.07121 0.666355,-0.04778 1.154171,-0.285761 0.487817,-0.237981 1.058959,-0.594946 1.582519,-0.928121 0.523559,-0.333175 0.99951,-0.642543 1.201734,-0.690037 0.202225,-0.04749 0.130831,0.166685 -0.08334,0.511704 -0.214176,0.345019 -0.571138,0.820971 -0.570997,1.047024 1.41e-4,0.226053 0.357106,0.202256 1.154305,-0.03575 0.7972,-0.238004 2.034675,-0.690158 2.772445,-0.940031 0.73777,-0.249874 0.975748,-0.29747 1.213523,-0.345025"
         id="path31197"
         inkscape:path-effect="#path-effect31199"
         inkscape:original-d="m 14.671626,28.37944 c -0.4519,0.714207 -0.904062,1.428149 -1.356492,2.141827 0.119258,0.262049 0.238247,0.523822 0.356973,0.785336 0.404839,-0.118728 0.809398,-0.237716 1.213702,-0.356971 0.571429,-0.356713 1.142572,-0.713677 1.71346,-1.070913 0.476237,-0.309117 0.952188,-0.618485 1.427885,-0.928125 -0.07113,0.214451 -0.142523,0.42863 -0.214183,0.642548 -0.356714,0.476236 -0.713676,0.952188 -1.070911,1.427885 0.35724,-0.02353 0.714205,-0.04733 1.070911,-0.07139 1.23779,-0.451908 2.475265,-0.904062 3.712501,-1.35649 0.23825,-0.04733 0.476227,-0.09493 0.713941,-0.142789" />
      <path
         style="fill:none;stroke:#000000;stroke-width:0.665;stroke-linecap:butt;stroke-linejoin:miter;stroke-miterlimit:4;stroke-dasharray:none;stroke-opacity:1"
         d="m 30.342548,20.490144 c -1.142295,1.047104 -2.284603,2.09422 -3.486434,3.355549 -1.201831,1.26133 -2.463103,2.736781 -3.284139,3.688706 -0.821035,0.951925 -1.201798,1.380283 -1.237381,1.820696 -0.03558,0.440412 0.273787,0.892565 0.868707,0.928079 0.594921,0.03551 1.475431,-0.345248 2.272668,-0.702222 0.797238,-0.356974 1.511167,-0.690141 1.903808,-0.880519 0.39264,-0.190378 0.464035,-0.237975 0.463982,-0.09506 -5.3e-5,0.142912 -0.07145,0.476078 -0.309436,1.059095 -0.23799,0.583017 -0.642549,1.415934 -0.975726,2.117987 -0.333176,0.702053 -0.594949,1.273195 -0.963815,1.891917 -0.368866,0.618723 -0.844817,1.285056 -1.296936,1.760975 -0.45212,0.475919 -0.880477,0.76149 -1.225439,0.797323 -0.344962,0.03583 -0.606735,-0.178344 -0.642601,-0.547264 -0.03587,-0.368919 0.154514,-0.892466 0.499616,-1.416101 0.345101,-0.523634 0.84485,-1.04718 1.404134,-1.546963 0.559284,-0.499782 1.17802,-0.975733 1.7968,-1.392213 0.61878,-0.41648 1.237516,-0.773443 2.011009,-1.082822 0.773493,-0.309378 1.701599,-0.571151 2.463164,-0.749631 0.761565,-0.178479 1.356504,-0.273669 1.95124,-0.368827"
         id="path31201"
         inkscape:path-effect="#path-effect31203"
         inkscape:original-d="m 30.342548,20.490144 c -1.142042,1.04738 -2.284351,2.094495 -3.426923,3.141346 -1.261059,1.475775 -2.522331,2.951226 -3.783893,4.426442 -0.380513,0.42864 -0.761275,0.856999 -1.14231,1.285101 0.309645,0.452436 0.619014,0.904589 0.928127,1.356486 0.880811,-0.380512 1.761321,-0.761274 2.641587,-1.142308 0.714219,-0.332915 1.428149,-0.666081 2.141826,-0.999519 0.07166,-0.04733 0.143052,-0.09493 0.214182,-0.142789 -0.07113,0.333445 -0.142523,0.666611 -0.214182,0.99952 -0.40431,0.833214 -0.808871,1.66613 -1.213702,2.498798 -0.26152,0.57143 -0.523293,1.142572 -0.785337,1.713461 -0.475707,0.666624 -0.951658,1.332957 -1.427884,1.999039 -0.428109,0.285847 -0.856467,0.571418 -1.285097,0.856731 -0.26152,-0.213923 -0.523293,-0.428101 -0.785337,-0.642548 0.190654,-0.523304 0.381035,-1.046851 0.571154,-1.570674 0.500036,-0.523303 0.999783,-1.04685 1.49928,-1.570673 0.619027,-0.475706 1.237763,-0.951658 1.85625,-1.427884 0.619027,-0.356714 1.237763,-0.713678 1.856251,-1.070914 0.928407,-0.261519 1.856512,-0.523293 2.784374,-0.785336 0.595228,-0.09493 1.190167,-0.19012 1.784855,-0.285577" />
      <path
         style="fill:none;stroke:#000000;stroke-width:0.565;stroke-linecap:butt;stroke-linejoin:miter;stroke-miterlimit:4;stroke-dasharray:none;stroke-opacity:1"
         d="m 20.989904,24.559615 c -0.523569,0.571166 -1.047127,1.14232 -1.570673,1.713462"
         id="path31318"
         inkscape:path-effect="#path-effect31320"
         inkscape:original-d="m 20.989904,24.559615 c -0.523293,0.571419 -1.046851,1.142573 -1.570673,1.713462" />
    </g>
  </g>
</svg>
