<?xml version="1.0" encoding="UTF-8" standalone="no"?>
<!-- Created with Inkscape (http://www.inkscape.org/) -->

<svg
   width="200"
   height="200"
   viewBox="0 0 52.916666 52.916666"
   version="1.1"
   id="svg5"
   sodipodi:docname="nail-brush1.svg"
   inkscape:version="1.1 (c68e22c387, 2021-05-23)"
   xmlns:inkscape="http://www.inkscape.org/namespaces/inkscape"
   xmlns:sodipodi="http://sodipodi.sourceforge.net/DTD/sodipodi-0.dtd"
   xmlns="http://www.w3.org/2000/svg"
   xmlns:svg="http://www.w3.org/2000/svg">
  <sodipodi:namedview
     id="namedview7"
     pagecolor="#ffffff"
     bordercolor="#cccccc"
     borderopacity="1"
     inkscape:pageshadow="0"
     inkscape:pageopacity="1"
     inkscape:pagecheckerboard="0"
     inkscape:document-units="px"
     showgrid="false"
     units="px"
     inkscape:zoom="1.8529742"
     inkscape:cx="170.26681"
     inkscape:cy="116.29952"
     inkscape:window-width="1366"
     inkscape:window-height="705"
     inkscape:window-x="-8"
     inkscape:window-y="-8"
     inkscape:window-maximized="1"
     inkscape:current-layer="layer1" />
  <defs
     id="defs2">
    <inkscape:path-effect
       effect="bspline"
       id="path-effect5943"
       is_visible="true"
       lpeversion="1"
       weight="33.333333"
       steps="2"
       helper_size="0"
       apply_no_weight="true"
       apply_with_weight="true"
       only_selected="false" />
    <inkscape:path-effect
       effect="bspline"
       id="path-effect5939"
       is_visible="true"
       lpeversion="1"
       weight="33.333333"
       steps="2"
       helper_size="0"
       apply_no_weight="true"
       apply_with_weight="true"
       only_selected="false" />
    <inkscape:path-effect
       effect="bspline"
       id="path-effect1452"
       is_visible="true"
       lpeversion="1"
       weight="33.333333"
       steps="2"
       helper_size="0"
       apply_no_weight="true"
       apply_with_weight="true"
       only_selected="false" />
    <inkscape:path-effect
       effect="bspline"
       id="path-effect262"
       is_visible="true"
       lpeversion="1"
       weight="33.333333"
       steps="2"
       helper_size="0"
       apply_no_weight="true"
       apply_with_weight="true"
       only_selected="false" />
  </defs>
  <g
     inkscape:label="Layer 1"
     inkscape:groupmode="layer"
     id="layer1">
    <path
       style="fill:#f1caca;fill-opacity:1;stroke:#000000;stroke-width:0.296814;stroke-linecap:round;stroke-linejoin:round;stroke-miterlimit:4;stroke-dasharray:none;stroke-dashoffset:0;stroke-opacity:1;paint-order:stroke fill markers"
       d="M 25.635972,16.606722 29.009683,11.478795 7.7406179,1.2229405 5.7603934,0.9256695 1.7266047,7.6885855 20.355374,24.187136 24.169137,18.836257 Z"
       id="path184" />
    <path
       style="fill:#ffffff;stroke:#000000;stroke-width:0.296814;stroke-linecap:round;stroke-linejoin:round;stroke-miterlimit:4;stroke-dasharray:none;stroke-dashoffset:0;stroke-opacity:1;paint-order:stroke fill markers"
       d="m 25.635972,16.606722 17.430139,13.002676 8.608813,3.573444 -3.526503,5.675466 L 41.302853,31.60632 24.396379,18.57377"
       id="path186" />
    <path
       style="fill:none;stroke:#000000;stroke-width:0.19102916;stroke-linecap:round;stroke-linejoin:round;stroke-miterlimit:4;stroke-dasharray:none;stroke-dashoffset:0;stroke-opacity:1;paint-order:stroke fill markers"
       d="M 21.181039,18.783972 19.521508,21.4115 3.8596827,7.43304 4.5857262,6.5922311 Z"
       id="path188" />
    <path
       style="fill:none;stroke:#000000;stroke-width:0.18520833;stroke-linecap:round;stroke-linejoin:round;stroke-miterlimit:4;stroke-dasharray:none;stroke-dashoffset:0;stroke-opacity:1;paint-order:stroke fill markers"
       d="m 49.496793,34.128752 -4.14883,-2.732635"
       id="path190" />
    <path
       style="fill:none;stroke:#000000;stroke-width:0.296814;stroke-linecap:round;stroke-linejoin:round;stroke-miterlimit:4;stroke-dasharray:none;stroke-dashoffset:0;stroke-opacity:1;paint-order:stroke fill markers"
       d="m 49.496793,34.128752 v 0"
       id="path192" />
    <path
       style="fill:none;stroke:#000000;stroke-width:0.18520833;stroke-linecap:round;stroke-linejoin:round;stroke-miterlimit:4;stroke-dasharray:none;stroke-dashoffset:0;stroke-opacity:1;paint-order:stroke fill markers"
       d="m 45.13166,32.695326 c 0,0 3.964602,2.94764 3.964602,2.94764"
       id="path260"
       inkscape:path-effect="#path-effect262"
       inkscape:original-d="m 45.13166,32.695326 3.964602,2.94764" />
    <ellipse
       id="path457"
       style="fill:#000000;stroke:#470088;stroke-width:0.296814;stroke-linecap:round;stroke-linejoin:round;stroke-miterlimit:4;stroke-dasharray:none;stroke-dashoffset:0;paint-order:stroke fill markers"
       cx="-20.454996"
       cy="-24.249237"
       transform="scale(-1)"
       rx="0.00091475807"
       ry="0.00092693348" />
    <path
       style="fill:none;stroke:#000000;stroke-width:0.18520833;stroke-linecap:round;stroke-linejoin:round;stroke-miterlimit:4;stroke-dasharray:none;stroke-dashoffset:0;stroke-opacity:1;paint-order:stroke fill markers"
       d="m 48.441822,37.00862 c 0,0 -4.535188,-3.737637 -4.535188,-3.737637"
       id="path1448"
       inkscape:path-effect="#path-effect1452"
       inkscape:original-d="M 48.441822,37.00862 43.906634,33.270983" />
    <path
       style="fill:none;stroke:#000000;stroke-width:0.513487;stroke-linecap:butt;stroke-linejoin:miter;stroke-miterlimit:4;stroke-dasharray:none;stroke-opacity:1;paint-order:stroke fill markers"
       d="m 41.302853,31.60632 1.763258,-1.996922"
       id="path1487" />
    <path
       style="fill:none;stroke:#000000;stroke-width:0.19102916;stroke-linecap:round;stroke-linejoin:round;stroke-miterlimit:4;stroke-dasharray:none;stroke-dashoffset:0;stroke-opacity:1;paint-order:stroke fill markers"
       d="M 24.997453,12.258655 23.765984,15.072032 6.0733277,3.2377598 6.6604275,2.3125358 Z"
       id="path1569" />
    <g
       id="g9652"
       transform="matrix(0.6243763,0,0,0.56439221,-38.582579,-57.10421)"
       style="paint-order:stroke fill markers">
      <path
         style="fill:#fa8ee5;fill-opacity:1;stroke:#f4caca;stroke-width:0.0892742px;stroke-linecap:butt;stroke-linejoin:miter;stroke-opacity:1;paint-order:stroke fill markers"
         d="m 138.90822,170.02811 c 0.18084,0.0849 0.10914,0.66792 0.10914,0.66792 0,0 0.11944,5.0041 0.11944,5.0041 0,0 0.48851,3.17874 0.48851,3.17874 0.22523,0.70997 0.45049,1.42006 0.90096,2.41633 0.45048,0.99627 1.12615,2.27878 1.52028,3.14908 0.39413,0.8703 0.50675,1.32834 0.50672,1.91234 -2e-5,0.58399 -0.11263,1.29396 -0.38291,1.95811 -0.27027,0.66415 -0.6982,1.2825 -1.22747,1.75198 -0.52926,0.46949 -1.15989,0.79012 -1.72293,0.8932 -0.56303,0.10308 -1.05852,-0.0114 -1.6216,-0.24044 -0.56308,-0.22901 -1.1937,-0.57254 -1.67797,-1.04202 -0.48426,-0.46948 -0.8221,-1.06493 -1.03609,-1.68331 -0.21399,-0.61837 -0.30408,-1.25963 -0.28157,-1.85512 0.0225,-0.59549 0.15765,-1.14514 0.38288,-1.74062 0.22523,-0.59548 0.54054,-1.23673 0.90091,-1.93527 0.36037,-0.69853 0.76577,-1.45429 1.04731,-2.12991 0.28153,-0.67562 0.43919,-1.27107 0.58559,-2.11846 0.1464,-0.8474 0.28153,-1.94669 0.36037,-3.13763 0.0788,-1.19093 0.10138,-2.47345 0.11264,-3.401 0.0113,-0.92755 0.0113,-1.5001 0.19222,-1.70146 0.18095,-0.20135 0.54273,-0.0315 0.72357,0.0534 z"
         id="path5937"
         inkscape:path-effect="#path-effect5939"
         inkscape:original-d="m 139.08906,170.11303 -0.0717,0.583 0.11944,5.0041 0.48851,3.17874 c 0,0 0.45055,1.42004 0.67568,2.12992 0.67579,1.28266 1.35146,2.56517 2.02705,3.84761 0.11271,0.45816 0.22532,0.9162 0.33784,1.37415 -0.11253,0.71008 -0.22514,1.42005 -0.33784,2.12993 -0.42785,0.61847 -0.85577,1.23682 -1.2838,1.8551 -0.63056,0.32073 -1.26118,0.64136 -1.89191,0.9619 -0.49542,-0.11442 -0.99091,-0.22893 -1.4865,-0.34353 -0.63056,-0.34346 -1.26119,-0.68698 -1.89191,-1.03061 -0.33776,-0.59539 -0.6756,-1.19084 -1.01353,-1.78639 -0.09,-0.64119 -0.18009,-1.28245 -0.27027,-1.92381 0.13523,-0.54958 0.27036,-1.09923 0.40541,-1.64898 0.31542,-0.64119 0.63073,-1.28244 0.94596,-1.9238 0.4055,-0.75571 0.8109,-1.51147 1.21623,-2.26734 0.15775,-0.59539 0.3154,-1.19084 0.47297,-1.7864 0.13523,-1.09925 0.27036,-2.19854 0.40541,-3.29795 0.0226,-1.28247 0.0451,-2.56499 0.0676,-3.84761 9e-5,-0.57248 9e-5,-1.14503 0,-1.71768 0.36188,0.16998 0.72366,0.33986 1.08536,0.50965 z" />
      <path
         style="fill:#faf2e5;fill-opacity:1;stroke:#000000;stroke-width:0.0892742px;stroke-linecap:butt;stroke-linejoin:miter;stroke-opacity:0;paint-order:stroke fill markers"
         d="m 139.21997,181.53027 c -0.0225,0.0916 0.0225,0.43514 0.18017,0.95046 0.15768,0.51532 0.42794,1.20238 0.69822,1.8551 0.27028,0.65273 0.54055,1.27108 0.73196,1.45426 0.19142,0.18318 0.30403,-0.0687 0.31531,-0.40079 0.0113,-0.33206 -0.0788,-0.7443 -0.29276,-1.22525 -0.21394,-0.48095 -0.55178,-1.03061 -0.8108,-1.44286 -0.25901,-0.41225 -0.43918,-0.68707 -0.57432,-0.90464 -0.13514,-0.21757 -0.22524,-0.37789 -0.24778,-0.28628 z"
         id="path5941"
         inkscape:path-effect="#path-effect5943"
         inkscape:original-d="m 139.15236,181.27824 c 0.0451,0.34363 0.0902,0.68716 0.13514,1.03061 0.27037,0.68718 0.54063,1.37424 0.81081,2.06122 0.27037,0.61847 0.54064,1.23682 0.81083,1.8551 0.1127,-0.25185 0.22531,-0.50376 0.33784,-0.75578 -0.09,-0.41216 -0.1801,-0.8244 -0.27027,-1.23673 -0.33776,-0.54958 -0.6756,-1.09923 -1.01353,-1.64898 -0.1801,-0.27475 -0.36028,-0.54957 -0.54054,-0.82449 -0.09,-0.16023 -0.1801,-0.32054 -0.27028,-0.48095 z" />
    </g>
  </g>
</svg>
